<?xml version='1.0' encoding='utf-8'?>
<svg xmlns="http://www.w3.org/2000/svg" viewBox="0 0 697.91 474.08"> <g transform="translate(-107.59 187.96)"> <g transform="matrix(.99582 -.09134 .09134 .99582 15.729 9.2225)"> <g transform="translate(365.19 -24.562)"> <path d="m78.521-102.31h320.71a5 5 0 0 1 5 5v368.57a5 5 0 0 1-5 5h-320.71a5 5 0 0 1-5-5v-368.57a5 5 0 0 1 5-5" fill="#2ca05a" stroke="#000" stroke-linecap="round" stroke-linejoin="round" stroke-width="2"/> <path d="m95.071-32.512h287.66a5.1384 5.1558 0 0 1 5.1384 5.1558v288.63a5.1384 5.1558 0 0 1-5.1384 5.1558h-287.66a5.1384 5.1558 0 0 1-5.1384-5.1558v-288.63a5.1384 5.1558 0 0 1 5.1384-5.1558" fill="#fff"/> <g transform="translate(-12.122 16.162)" fill="none" stroke="#000"> <path d="m100.01 251.36h301.99" stroke-width="2.01"/> <path d="m101-108.64h299" stroke-width="2"/> <path d="m101 191.36h299" stroke-width="2"/> <path d="m101 131.36h299" stroke-width="2"/> <path d="m101 71.362h299" stroke-width="2"/> <path d="m101 11.362h299" stroke-width="2"/> <path d="m101-48.638h299" stroke-width="2"/> <path d="m101 251.16v-360.8" stroke-width="2.197"/> <path d="m161 251.35v-299" stroke-width="2"/> <path d="m221 251.35v-299" stroke-width="2"/> <path d="m281 251.35v-299" stroke-width="2"/> <path d="m341 251.35v-299" stroke-width="2"/> <path d="m401 251.16v-360.79" stroke-width="2.197"/> </g> </g> <path d="m476.6219-86.7933v8.1995h4.4397c2.9337,5e-006 4.7204-.9733 5.3601-2.9199 .1334-.4264.2002-.8663.2002-1.3196-2e-005-1.2801-.68-2.3201-2.0398-3.1201-.9603-.5599-2.1338-.8398-3.5205-.8398zm0-10.9204v6.2805h3.2007c2.2127,1.7e-005 3.6792-.7068 4.3994-2.1204 .1863-.3467.2795-.6933.2795-1.04-2e-005-1.1735-.6531-2.0402-1.9592-2.6001-.8-.3467-1.8136-.52-3.0408-.52h-2.8394zm-5.2393-4.6399h8.1189c5.734,3e-005 9.0543,1.8132 9.9609,5.4395 .1334.6136.2002,1.2403.2002,1.8799-2e-005,2.5334-.9335,4.3071-2.8003,5.321-.3198.1864-.6531.3329-.9998.4395 2.3999.5599 4.1329,1.8799 5.199,3.96 .4801.9066.7202,1.7867.7202,2.6404-2e-005,4.3465-1.9466,7.0662-5.8398,8.1592-1.3867.4004-3.0135.6006-4.8804.6006h-9.679z" fill="#ff0"/> <path d="m542.42-73.914v-28.44h5.2393v28.44z" fill="#ff0"/> <path d="m593.74-73.914v-28.44h5.0793l11.2 18.359v-18.359h5.2405v28.44h-5.1599l-11.121-19v19z" fill="#ff0"/> <path d="m664.43-72.594c-4.6135 0-8.0001-2.0935-10.16-6.2805-1.333-2.64-1.9995-5.6799-1.9995-9.1199-1e-5 -4.1064 1.0531-7.4931 3.1592-10.16 2.1606-2.7994 5.1741-4.1992 9.0405-4.1992 2.9866 3e-5 5.4533 1.0531 7.3999 3.1592 0.747 0.774 1.3338 1.6541 1.7603 2.6404l-5.0403 1.6797c-0.2401-0.8528-1.0401-1.6129-2.3999-2.2803-0.6934-0.3467-1.2667-0.52-1.72-0.52-2.4536 2.4e-5 -4.3071 1.3737-5.5603 4.1211-0.7463 1.6797-1.1194 3.5327-1.1194 5.5591 0 3.3073 0.7198 6.014 2.1594 8.1201 1.1735 1.7603 2.6668 2.6404 4.48 2.6404 2.9606 5e-6 4.8006-1.5067 5.52-4.5203 0.1872-0.7731 0.2807-1.5865 0.2808-2.4402h-5.9204v-4.6802h11.36v2.8406c-2e-5 4.3465-1.1068 7.7466-3.3203 10.2-1.9466 2.1598-4.5866 3.2397-7.9199 3.2397z" fill="#ff0"/> <path d="m729.9182-87.9945c-2e-005-3.9201-.92-6.7065-2.76-8.3594-1.0132-.8797-2.253-1.3196-3.7195-1.3196-2.9598,2.5e-005-4.9333,1.7464-5.9204,5.2393-.3727,1.3338-.5591,2.8137-.5591,4.4397 0,4.0804.8667,7.0406 2.6001,8.8806 1.0392,1.1198 2.3323,1.6797 3.8794,1.6797 2.9069,4e-006 4.8669-1.84 5.8801-5.52 .3996-1.4933.5994-3.1734.5994-5.0403zm-18.479,0c0-3.8126.9465-7.0524 2.8394-9.7192 2.1867-3.0932 5.2401-4.6399 9.1602-4.6399 4.5337,3e-005 7.867,1.9865 10,5.9595 1.333,2.4805 1.9995,5.2804 1.9995,8.3997-3e-005,4.0536-.9465,7.5069-2.8394,10.3601-2.1867,3.2804-5.2401,4.9207-9.1601,4.9207-4.4002,0-7.6937-2.0536-9.8804-6.1609-1.4128-2.666-2.1191-5.706-2.1191-9.1199z" fill="#ff0"/> <path d="m483.4543-28.2644c-1.752-.0959-4.2839.2523-7.5959,1.0448l2.3401-14.0043h11.9883v4.2122h-8.2441l-.9723,5.1119c.5757-.2644 1.2118-.3966 1.9083-.3966h.6471c2.6404,1.7e-005 4.8607.9122 6.661,2.7367 1.656,1.7036 2.484,3.7914 2.484,6.2633-1e-005,2.2324-.828,4.1525-2.484,5.7601-1.656,1.6326-3.7562,2.4489-6.3007,2.4489-3.8401-1e-006-6.5999-1.3923-8.2793-4.177-.4563-.7917-.8763-1.7157-1.2601-2.7719l4.6791-.8273c.5764,1.7754 1.5725,2.8674 2.9883,3.2761 .5522.1677 1.1763.2516 1.8721.2516 1.56,3e-006 2.7242-.5881 3.4926-1.7644 .4314-.6475.6471-1.3912.6471-2.2313-2e-005-1.8003-.6599-3.1684-1.9797-4.1045-.7676-.5522-1.6315-.8284-2.5917-.8284z"/> <path d="m468.53 22.179-2.2676 2.1248-3.0245-3.3849 5.3646-4.5714h4.6439v25.596h-4.7164z"/> <path d="m496.62 16.528v15.119h3.3124v4.1759h-3.3124v6.1205h-4.7153v-6.1205h-10.801l10.44-19.476h5.1845zm-4.5714 5.9755-5.0043 9.1088h5.0043z"/> <path d="m490.37 77.919-7.92 25.596h-5.6876l6.6236-21.132h-10.583v-4.4637z"/> <path d="m468.64 145.01-2.2676 2.1248-3.0245-3.3849 5.3646-4.5714h4.6439v25.596h-4.7164z"/> <path d="m482.6484,159.0106 4.5362-1.2239c.5757,1.6077 1.4996,2.6517 2.7719,3.1322 .3362.1201.6841.1802 1.0437.1802 2.7363,0 4.1045-1.2601 4.1045-3.7804-2e-005-1.8237-.924-3.0359-2.7719-3.6365-.6966-.2395-1.4766-.3592-2.3401-.3593h-1.3678v-3.7441l1.3678-.0363c2.0398,2e-005 3.2996-.5877 3.7793-1.7633 .1926-.4804.2889-1.0807.2889-1.8007-1e-005-1.3198-.5643-2.2796-1.693-2.8795-.5273-.2885-1.103-.4328-1.7271-.4329h-.1088c-1.2715,2e-005-2.2075.7083-2.8081,2.1248l-4.3912-1.1887c1.3198-3.4079 3.7559-5.1119 7.3081-5.1119 3.4556,2e-005 5.8553,1.1763 7.1993,3.5288 .624,1.128.936,2.4478.936,3.9595-2e-005,1.9922-1.0199,3.5882-3.0597,4.7878-.0483,1e-005-.1084.0242-.1802.0725 1.0803.2878 2.0522,1.0558 2.9158,2.3038 .9119,1.2722 1.3678,2.6642 1.3678,4.1759-2e-005,3.1443-1.2118,5.4122-3.6354,6.8038-1.4158.8159-3.1439,1.2239-5.1845,1.2239-3.0242-1e-005-5.3643-1.2118-7.0203-3.6354-.5515-.7925-.9954-1.6926-1.3315-2.7004z"/> <path d="m472.9964,215.5821 4.5362-1.2239c.5757,1.6077 1.4996,2.6517 2.7719,3.1322 .3362.1201.6841.1802 1.0437.1802 2.7363,1e-005 4.1045-1.2601 4.1045-3.7804-2e-005-1.8237-.924-3.0359-2.7719-3.6365-.6966-.2395-1.4766-.3592-2.3401-.3593h-1.3678v-3.7441l1.3678-.0363c2.0398,2e-005 3.2996-.5877 3.7793-1.7633 .1926-.4804.2889-1.0807.2889-1.8007-2e-005-1.3198-.5644-2.2796-1.693-2.8795-.5273-.2885-1.103-.4328-1.7271-.4329h-.1088c-1.2715,2e-005-2.2075.7083-2.8081,2.1248l-4.3912-1.1887c1.3198-3.4079 3.7559-5.1119 7.3081-5.1119 3.4556,2e-005 5.8553,1.1763 7.1993,3.5288 .624,1.128.936,2.4478.936,3.9595-2e-005,1.9922-1.0199,3.5882-3.0597,4.7878-.0484,2e-005-.1084.0242-.1802.0725 1.0803.2879 2.0522,1.0558 2.9158,2.3038 .9119,1.2722 1.3678,2.6642 1.3678,4.1759-2e-005,3.1443-1.2118,5.4122-3.6354,6.8038-1.4158.8159-3.1439,1.2239-5.1844,1.2239-3.0242,0-5.3643-1.2118-7.0203-3.6354-.5515-.7925-.9954-1.6926-1.3315-2.7004z"/> <path d="m530.3823-33.9158-4.1759-1.2239c.4797-2.0639 1.6436-3.6961 3.4914-4.8966 1.248-.8393 2.5562-1.259 3.9243-1.259 2.064,2.6e-005 3.8518.768 5.3635,2.3038 1.6802,1.7278 2.5202,4.0679 2.5203,7.0203-2e-005,1.6553-1.1759,4.1752-3.5277,7.5597 .0959-.1684-.2641.3355-1.08,1.5117l-2.8806,3.7079h8.2804v4.2122h-17.0277l8.3156-10.7281c1.3682-1.9922 2.22-3.3003 2.5554-3.9243 .5046-.9836.7569-1.7633.757-2.339-1e-005-2.3283-.624-3.9005-1.8721-4.7164-.4321-.2644-.9002-.3966-1.4041-.3966-1.6318,2.3e-005-2.7118,1.0562-3.2399,3.1685z"/> <path d="m551.4134-33.1962c-1e-005,1.6084.564,2.7847 1.6919,3.5288 .5522.3596 1.1883.5394 1.9083.5394 1.4399,1.4e-005 2.4719-.7079 3.096-2.1237 .2402-.5764.3603-1.2004.3604-1.8721-1e-005-1.6084-.5881-2.7726-1.7644-3.4926-.5281-.312-1.1041-.468-1.7282-.468-1.4876,2.3e-005-2.5434.6962-3.1674,2.0885-.2644.5757-.3966,1.1756-.3966,1.7996zm5.1119,8.0288-1.6194.2878c-2.9524,1e-005-5.1965-1.0799-6.7324-3.2399-.9836-1.4165-1.4755-3.1087-1.4755-5.0768 0-2.1833.8038-4.0792 2.4115-5.6876 1.6084-1.56 3.5764-2.3401 5.904-2.3401 2.6638,2.6e-005 4.7878.9961 6.3721,2.9883 1.1997,1.4876 1.7995,3.1795 1.7996,5.0757-2e-005,2.9041-.6958,5.64-2.0874,8.2079-.1201.2161-.204.3721-.2516.468l-5.1845,10.0085-3.8156-2.1962z"/> <path d="m531.98 22.935-2.2676 2.1248-3.0245-3.3849 5.3646-4.5714h4.6439v25.596h-4.7164z"/> <path d="m563.17 17.103-7.92 25.596h-5.6876l6.6237-21.132h-10.583v-4.4637z"/> <path d="m531.2996,84.9387-4.1759-1.2239c.4797-2.0639 1.6436-3.6961 3.4914-4.8966 1.248-.8393 2.5562-1.259 3.9243-1.259 2.064,2.7e-005 3.8518.768 5.3635,2.3038 1.6802,1.7278 2.5202,4.0679 2.5203,7.0203-2e-005,1.6553-1.1759,4.1752-3.5277,7.5597 .0959-.1684-.2641.3355-1.08,1.5117l-2.8806,3.7079h8.2804v4.2122h-17.0277l8.3156-10.7281c1.3682-1.9922 2.22-3.3003 2.5554-3.9243 .5046-.9836.757-1.7633.757-2.339-1e-005-2.3283-.624-3.9005-1.8721-4.7164-.4321-.2644-.9002-.3966-1.4041-.3966-1.6318,2.2e-005-2.7118,1.0562-3.2399,3.1685z"/> <path d="m551.9715,84.9387-4.1759-1.2239c.4797-2.0639 1.6436-3.6961 3.4915-4.8966 1.248-.8393 2.5561-1.259 3.9243-1.259 2.064,2.7e-005 3.8518.768 5.3635,2.3038 1.6802,1.7278 2.5202,4.0679 2.5203,7.0203-1e-005,1.6553-1.1759,4.1752-3.5277,7.5597 .0959-.1684-.2641.3355-1.08,1.5117l-2.8806,3.7079h8.2804v4.2122h-17.0277l8.3156-10.7281c1.3682-1.9922 2.22-3.3003 2.5554-3.9243 .5046-.9836.7569-1.7633.757-2.339-2e-005-2.3283-.624-3.9005-1.8721-4.7164-.4321-.2644-.9002-.3966-1.4041-.3966-1.6318,2.2e-005-2.7118,1.0562-3.2399,3.1685z"/> <path d="m530.0043,145.1503-4.1759-1.2239c.4797-2.0639 1.6436-3.6961 3.4915-4.8966 1.248-.8393 2.5561-1.259 3.9243-1.259 2.064,3e-005 3.8518.768 5.3635,2.3038 1.6802,1.7278 2.5202,4.0679 2.5203,7.0203-2e-005,1.6553-1.1759,4.1752-3.5277,7.5597 .0959-.1684-.2641.3355-1.08,1.5117l-2.8806,3.7079h8.2804v4.2122h-17.0277l8.3156-10.7281c1.3682-1.9922 2.22-3.3003 2.5554-3.9243 .5046-.9836.7569-1.7633.757-2.339-1e-005-2.3283-.624-3.9005-1.8721-4.7164-.4321-.2644-.9002-.3966-1.4041-.3966-1.6318,2e-005-2.7118,1.0562-3.2399,3.1685z"/> <path d="m554.3116,160.7739c1.8479,0 3.156-.6958 3.9243-2.0874 .3596-.624.5394-1.3323.5394-2.1248-2e-005-1.5117-.6599-2.7114-1.9797-3.5991-.7676-.5039-1.5956-.7559-2.484-.7559-1.9922,1e-005-3.3362.7797-4.032,2.339-.2878.6006-.4318,1.2726-.4318,2.016-1e-005,1.7044.7079,2.9286 2.1237,3.6727 .6965.3596 1.4766.5394 2.3401.5394zm-3.4563-16.0192c-1e-005,1.7754.8763,2.7953 2.629,3.0597 .2637.0476.5394.0714.8273.0714 1.8479,2e-005 2.9641-.7199 3.3486-2.1599 .0718-.2878.1077-.6116.1077-.9712-1e-005-1.4399-.6361-2.4122-1.9083-2.9169-.4556-.1677-.9837-.2516-1.5842-.2516-1.7754,3e-005-2.8671.72-3.275,2.1599-.0967.312-.145.6482-.145,1.0085zm3.42-7.0203c2.8806,2e-005 5.1006.9119 6.6599,2.7356 1.0327,1.2239 1.5491,2.6521 1.5491,4.2847-1e-005,2.0156-1.0441,3.7196-3.1322,5.1119l-.1802.1077c1.1279.312 2.1478,1.1638 3.0597,2.5554 .8401,1.2722 1.2601,2.6162 1.2601,4.032-.0484,3.1926-1.3924,5.4968-4.032,6.9126-1.4641.7917-3.204,1.1876-5.2196,1.1876-3.4805,0-6.0366-1.1159-7.6685-3.3475-.9602-1.3198-1.4403-2.904-1.4403-4.7527s.6962-3.5398 2.0885-5.0757c.7676-.8159 1.5117-1.3077 2.2324-1.4755-1.7044-.9844-2.7605-2.3045-3.1685-3.9606-.0959-.4079-.1439-.8397-.1439-1.2953 0-2.5444 1.0441-4.4527 3.1322-5.725 1.3674-.8635 3.0351-1.2953 5.0032-1.2953z"/> <path d="m530.8497,202.4776-4.1759-1.2239c.4797-2.0639 1.6436-3.6961 3.4914-4.8966 1.248-.8393 2.5562-1.259 3.9243-1.259 2.064,3e-005 3.8518.768 5.3635,2.3038 1.6802,1.7278 2.5202,4.0679 2.5203,7.0203-2e-005,1.6553-1.1759,4.1752-3.5277,7.5597 .0959-.1684-.2641.3355-1.08,1.5117l-2.8806,3.7079h8.2804v4.2122h-17.0277l8.3156-10.7281c1.3682-1.9922 2.22-3.3003 2.5554-3.9243 .5046-.9836.757-1.7633.757-2.339-1e-005-2.3283-.624-3.9005-1.8721-4.7164-.4321-.2644-.9002-.3966-1.4041-.3966-1.6318,2e-005-2.7118,1.0562-3.2399,3.1685z"/> <path d="m564.12 195.82-7.92 25.596h-5.6876l6.6237-21.132h-10.583v-4.4637z"/> <path d="m600.56-40.359v15.119h3.3124v4.1759h-3.3124v6.1205h-4.7153v-6.1205h-10.801l10.44-19.476h5.1845zm-4.5714 5.9755-5.0043 9.1088h5.0043z"/> <path d="m611.7269-33.8795-4.1759-1.2239c.4797-2.0639 1.6436-3.6961 3.4914-4.8966 1.248-.8393 2.5561-1.259 3.9243-1.259 2.064,2.6e-005 3.8518.768 5.3635,2.3038 1.6802,1.7278 2.5202,4.0679 2.5203,7.0203-2e-005,1.6553-1.1759,4.1752-3.5277,7.5597 .0959-.1684-.2641.3355-1.08,1.5117l-2.8806,3.7079h8.2804v4.2122h-17.0277l8.3156-10.7281c1.3682-1.9922 2.22-3.3003 2.5554-3.9243 .5046-.9836.757-1.7633.757-2.339-1e-005-2.3283-.624-3.9005-1.8721-4.7164-.4321-.2644-.9002-.3966-1.4041-.3966-1.6319,2.2e-005-2.7118,1.0562-3.2399,3.1685z"/> <path d="m586.1585,36.1833 4.5362-1.2239c.5757,1.6077 1.4996,2.6517 2.7719,3.1322 .3362.1201.6841.1802 1.0437.1802 2.7363,3e-006 4.1045-1.2601 4.1045-3.7804-2e-005-1.8237-.924-3.0359-2.7719-3.6365-.6966-.2395-1.4766-.3592-2.3401-.3593h-1.3678v-3.7441l1.3678-.0363c2.0398,1.5e-005 3.2996-.5878 3.7793-1.7633 .1926-.4805.2889-1.0807.2889-1.8007-1e-005-1.3198-.5643-2.2796-1.693-2.8795-.5273-.2886-1.103-.4328-1.7271-.4329h-.1088c-1.2715,2.3e-005-2.2075.7083-2.8081,2.1248l-4.3912-1.1887c1.3198-3.4079 3.7559-5.1119 7.3081-5.1119 3.4556,2.6e-005 5.8553,1.1763 7.1993,3.5288 .624,1.128.936,2.4478.936,3.9595-2e-005,1.9922-1.0199,3.5882-3.0597,4.7878-.0484,1.4e-005-.1084.0242-.1802.0725 1.0803.2879 2.0522,1.0558 2.9158,2.3038 .9119,1.2722 1.3678,2.6642 1.3678,4.1759-2e-005,3.1443-1.2118,5.4122-3.6354,6.8038-1.4158.8159-3.1439,1.2239-5.1845,1.2239-3.0242,0-5.3643-1.2118-7.0203-3.6354-.5515-.7925-.9954-1.6926-1.3315-2.7004z"/> <path d="m615.0382,38.6311c1.8479,3e-006 3.156-.6958 3.9243-2.0874 .3596-.624.5394-1.3323.5394-2.1248-1e-005-1.5117-.6599-2.7114-1.9797-3.5991-.7676-.5039-1.5956-.7558-2.484-.7559-1.9922,1.2e-005-3.3362.7797-4.032,2.339-.2878.6006-.4318,1.2726-.4318,2.016 0,1.7044.7079,2.9286 2.1237,3.6727 .6965.3596 1.4766.5394 2.3401.5394zm-3.4563-16.0192c-1e-005,1.7754.8763,2.7953 2.629,3.0597 .2637.0476.5394.0714.8273.0714 1.8479,1.6e-005 2.9641-.72 3.3486-2.1599 .0718-.2878.1077-.6116.1077-.9712-2e-005-1.4399-.6361-2.4122-1.9083-2.9169-.4556-.1677-.9837-.2516-1.5842-.2516-1.7754,2.2e-005-2.8671.72-3.275,2.1599-.0967.312-.145.6482-.145,1.0085zm3.42-7.0203c2.8806,2.6e-005 5.1006.9119 6.6599,2.7356 1.0327,1.2239 1.5491,2.6521 1.5491,4.2847-2e-005,2.0156-1.0441,3.7196-3.1322,5.1119l-.1802.1077c1.1279.312 2.1478,1.1638 3.0597,2.5554 .8401,1.2722 1.2601,2.6162 1.2601,4.032-.0484,3.1926-1.3924,5.4968-4.032,6.9126-1.4641.7917-3.204,1.1876-5.2196,1.1876-3.4805,0-6.0366-1.1158-7.6685-3.3475-.9602-1.3198-1.4403-2.904-1.4403-4.7527s.6962-3.5398 2.0885-5.0757c.7676-.8159 1.5117-1.3077 2.2324-1.4755-1.7044-.9844-2.7605-2.3045-3.1685-3.9606-.096-.4079-.1439-.8397-.1439-1.2953-1e-005-2.5444 1.0441-4.4527 3.1322-5.725 1.3674-.8635 3.0351-1.2953 5.0032-1.2953z"/> <path d="m585.9244,159.0458 4.5362-1.2239c.5757,1.6077 1.4996,2.6517 2.7719,3.1322 .3362.1201.6841.1802 1.0437.1802 2.7363,0 4.1045-1.2601 4.1045-3.7804-2e-005-1.8237-.924-3.0359-2.7719-3.6365-.6966-.2395-1.4766-.3592-2.3401-.3593h-1.3678v-3.7441l1.3678-.0362c2.0398,1e-005 3.2996-.5877 3.7793-1.7633 .1926-.4804.2889-1.0807.2889-1.8007-2e-005-1.3198-.5644-2.2796-1.693-2.8795-.5273-.2885-1.103-.4328-1.7271-.4329h-.1088c-1.2715,2e-005-2.2075.7083-2.8081,2.1248l-4.3912-1.1887c1.3198-3.4079 3.7559-5.1119 7.3081-5.1119 3.4556,3e-005 5.8553,1.1763 7.1993,3.5288 .624,1.128.936,2.4478.936,3.9595-2e-005,1.9922-1.0199,3.5882-3.0597,4.7878-.0484,1e-005-.1084.0242-.1802.0725 1.0803.2878 2.0522,1.0558 2.9158,2.3038 .9119,1.2722 1.3678,2.6642 1.3678,4.1759-2e-005,3.1443-1.2118,5.4122-3.6354,6.8038-1.4158.8159-3.1439,1.2239-5.1844,1.2239-3.0242,0-5.3643-1.2118-7.0203-3.6354-.5515-.7925-.9954-1.6926-1.3315-2.7004z"/> <path d="m606.5963,159.0458 4.5363-1.2239c.5757,1.6077 1.4996,2.6517 2.7719,3.1322 .3362.1201.6841.1802 1.0437.1802 2.7363,0 4.1045-1.2601 4.1045-3.7804-1e-005-1.8237-.924-3.0359-2.7719-3.6365-.6965-.2395-1.4766-.3592-2.3401-.3593h-1.3678v-3.7441l1.3678-.0362c2.0398,1e-005 3.2996-.5877 3.7793-1.7633 .1926-.4804.2889-1.0807.2889-1.8007-1e-005-1.3198-.5643-2.2796-1.693-2.8795-.5274-.2885-1.103-.4328-1.7271-.4329h-.1088c-1.2715,2e-005-2.2075.7083-2.8081,2.1248l-4.3912-1.1887c1.3198-3.4079 3.7559-5.1119 7.3081-5.1119 3.4556,3e-005 5.8553,1.1763 7.1993,3.5288 .624,1.128.936,2.4478.936,3.9595-2e-005,1.9922-1.0199,3.5882-3.0597,4.7878-.0483,1e-005-.1084.0242-.1802.0725 1.0803.2878 2.0522,1.0558 2.9158,2.3038 .9118,1.2722 1.3678,2.6642 1.3678,4.1759-1e-005,3.1443-1.2118,5.4122-3.6354,6.8038-1.4158.8159-3.1439,1.2239-5.1845,1.2239-3.0242,0-5.3643-1.2118-7.0203-3.6354-.5515-.7925-.9954-1.6926-1.3316-2.7004z"/> <path d="m585.5828,215.5821 4.5363-1.2239c.5757,1.6077 1.4996,2.6517 2.7719,3.1322 .3362.1201.6841.1802 1.0437.1802 2.7363,1e-005 4.1045-1.2601 4.1045-3.7804-1e-005-1.8237-.924-3.0359-2.7719-3.6365-.6965-.2395-1.4766-.3592-2.3401-.3593h-1.3678v-3.7441l1.3678-.0363c2.0398,2e-005 3.2996-.5877 3.7793-1.7633 .1926-.4804.2889-1.0807.2889-1.8007-1e-005-1.3198-.5643-2.2796-1.693-2.8795-.5274-.2885-1.103-.4328-1.7271-.4329h-.1088c-1.2715,2e-005-2.2075.7083-2.8081,2.1248l-4.3912-1.1887c1.3198-3.4079 3.7559-5.1119 7.3081-5.1119 3.4556,2e-005 5.8553,1.1763 7.1993,3.5288 .624,1.128.936,2.4478.936,3.9595-1e-005,1.9922-1.0199,3.5882-3.0597,4.7878-.0483,2e-005-.1084.0242-.1802.0725 1.0803.2879 2.0522,1.0558 2.9158,2.3038 .9118,1.2722 1.3678,2.6642 1.3678,4.1759-1e-005,3.1443-1.2118,5.4122-3.6354,6.8038-1.4158.8159-3.1439,1.2239-5.1845,1.2239-3.0242,0-5.3643-1.2118-7.0203-3.6354-.5515-.7925-.9954-1.6926-1.3316-2.7004z"/> <path d="m610.8271,202.4062-4.1759-1.2239c.4797-2.0639 1.6436-3.6961 3.4914-4.8966 1.248-.8393 2.5561-1.259 3.9243-1.259 2.064,3e-005 3.8518.768 5.3635,2.3038 1.6802,1.7278 2.5202,4.0679 2.5203,7.0203-2e-005,1.6553-1.1759,4.1752-3.5277,7.5597 .0959-.1684-.2641.3355-1.08,1.5117l-2.8806,3.7079h8.2804v4.2122h-17.0277l8.3156-10.7281c1.3682-1.9922 2.22-3.3003 2.5554-3.9243 .5046-.9836.757-1.7633.757-2.339-1e-005-2.3283-.624-3.9005-1.8721-4.7164-.4321-.2644-.9002-.3966-1.4041-.3966-1.6319,2e-005-2.7118,1.0562-3.2399,3.1685z"/> <path d="m654.0142-28.2644c-1.752-.0959-4.2839.2523-7.596,1.0448l2.3401-14.0043h11.9883v4.2122h-8.2441l-.9723,5.1119c.5757-.2644 1.2118-.3966 1.9083-.3966h.6471c2.6404,1.7e-005 4.8607.9122 6.661,2.7367 1.656,1.7036 2.484,3.7914 2.484,6.2633-2e-005,2.2324-.828,4.1525-2.484,5.7601-1.656,1.6326-3.7562,2.4489-6.3007,2.4489-3.8401-1e-006-6.5999-1.3923-8.2793-4.177-.4563-.7917-.8763-1.7157-1.2601-2.7719l4.6791-.8273c.5764,1.7754 1.5725,2.8674 2.9883,3.2761 .5522.1677 1.1763.2516 1.8721.2516 1.56,3e-006 2.7242-.5881 3.4926-1.7644 .4314-.6475.6471-1.3912.6471-2.2313-1e-005-1.8003-.6599-3.1684-1.9797-4.1045-.7676-.5522-1.6315-.8284-2.5917-.8284z"/> <path d="m671.0144-34.564-4.1759-1.2239c.4797-2.0639 1.6436-3.6961 3.4915-4.8966 1.248-.8393 2.5561-1.259 3.9243-1.259 2.064,2.6e-005 3.8518.768 5.3635,2.3038 1.6802,1.7278 2.5202,4.0679 2.5203,7.0203-2e-005,1.6553-1.1759,4.1752-3.5277,7.5597 .0959-.1684-.2641.3355-1.08,1.5117l-2.8806,3.7079h8.2804v4.2122h-17.0277l8.3156-10.7281c1.3682-1.9922 2.22-3.3003 2.5554-3.9243 .5046-.9836.7569-1.7633.757-2.339-2e-005-2.3283-.624-3.9005-1.8721-4.7164-.4321-.2644-.9002-.3966-1.4041-.3966-1.6318,2.2e-005-2.7118,1.0562-3.2399,3.1685z"/> <path d="m657.3617,35.1759c-1e-005-1.6077-.564-2.7836-1.6919-3.5277-.5523-.3603-1.1884-.5405-1.9083-.5405-1.44,1.2e-005-2.4719.7083-3.0959,2.1248-.2402.5757-.3604,1.1993-.3604,1.871-1e-005,1.6084.5881,2.7726 1.7644,3.4926 .5281.312 1.1041.468 1.7282.468 1.4875,4e-006 2.5433-.6962 3.1674-2.0885 .2644-.5757.3966-1.1755.3966-1.7996zm-5.1119-8.0277 1.6194-.2878c2.9524,1.6e-005 5.1965,1.08 6.7324,3.2399 .9836,1.4158 1.4754,3.1077 1.4755,5.0757-2e-005,2.1841-.8038,4.08-2.4115,5.6876-1.6084,1.5601-3.5764,2.3401-5.9041,2.3401-2.6638,0-4.7878-.9957-6.3721-2.9872-1.1997-1.4883-1.7996-3.1805-1.7996-5.0768 0-2.5679.672-5.2438 2.016-8.0277-.312.624-.2043.408.323-.6482l5.3646-10.08 3.8156,2.1962z"/> <path d="m665.76 29.344c-1e-5 -4.248 0.984-7.608 2.952-10.08 1.5601-1.9446 3.5039-2.9168 5.8316-2.9169 3 2.7e-5 5.28 1.5363 6.8401 4.6088 1.1763 2.28 1.7644 5.0761 1.7644 8.3881-2e-5 4.6077-0.984 8.2075-2.952 10.8-1.5359 2.0398-3.4559 3.0597-5.7601 3.0597-2.9041 0-5.1603-1.5601-6.7687-4.6802-1.2715-2.4954-1.9072-5.555-1.9072-9.1791zm4.7153 0c-1e-5 3.5757 0.5522 6.2637 1.6567 8.064 0.6474 1.032 1.4154 1.548 2.3038 1.548 1.5842 4e-6 2.7363-1.4883 3.4563-4.4648 0.3596-1.5593 0.5394-3.275 0.5394-5.1471-2e-5 -3.4805-0.5761-6.0007-1.7282-7.5608-0.5999-0.7917-1.3198-1.1876-2.1599-1.1876-1.5117 2.2e-5 -2.6397 1.2481-3.3838 3.7441-0.4563 1.5117-0.6845 3.1798-0.6845 5.0043z"/> <path d="m660.22 78.099v15.119h3.3124v4.1759h-3.3124v6.1205h-4.7153v-6.1205h-10.801l10.44-19.476h5.1845zm-4.5714 5.9755-5.0043 9.1088h5.0043z"/> <path d="m671.7516,85.3704c-1e-005,1.6084.5639,2.7847 1.6919,3.5288 .5522.3596 1.1884.5394 1.9083.5394 1.4399,1.5e-005 2.4719-.7079 3.0959-2.1237 .2402-.5764.3603-1.2004.3604-1.8721-2e-005-1.6084-.5881-2.7726-1.7644-3.4926-.5281-.312-1.1041-.468-1.7282-.468-1.4876,2.2e-005-2.5433.6962-3.1674,2.0885-.2644.5757-.3966,1.1756-.3966,1.7996zm5.1119,8.0288-1.6194.2878c-2.9524,9e-006-5.1965-1.0799-6.7324-3.2399-.9837-1.4165-1.4755-3.1087-1.4755-5.0768 0-2.1833.8038-4.0792 2.4115-5.6876 1.6084-1.56 3.5764-2.3401 5.9041-2.3401 2.6638,2.6e-005 4.7878.9961 6.3721,2.9883 1.1997,1.4876 1.7995,3.1795 1.7996,5.0757-2e-005,2.9041-.6958,5.64-2.0874,8.2079-.1201.2161-.204.3721-.2516.468l-5.1845,10.0085-3.8156-2.1962z"/> <path d="m659.41 138.67v15.119h3.3124v4.1759h-3.3124v6.1205h-4.7153v-6.1205h-10.801l10.44-19.476h5.1845zm-4.5714 5.9755-5.0043 9.1088h5.0043z"/> <path d="m677.7095,156.6343c-1e-005-1.6077-.564-2.7836-1.6919-3.5277-.5523-.3603-1.1884-.5405-1.9083-.5405-1.44,1e-005-2.4719.7083-3.0959,2.1248-.2402.5757-.3604,1.1993-.3604,1.871 0,1.6084.5881,2.7726 1.7644,3.4926 .5281.312 1.1041.468 1.7282.468 1.4875,0 2.5433-.6962 3.1674-2.0885 .2644-.5757.3966-1.1755.3966-1.7996zm-5.1119-8.0277 1.6194-.2878c2.9524,1e-005 5.1965,1.08 6.7324,3.2399 .9836,1.4158 1.4754,3.1077 1.4755,5.0757-1e-005,2.1841-.8038,4.08-2.4115,5.6876-1.6084,1.5601-3.5764,2.3401-5.9041,2.3401-2.6638,0-4.7878-.9957-6.3721-2.9872-1.1997-1.4883-1.7996-3.1805-1.7996-5.0768 0-2.5679.672-5.2438 2.016-8.0277-.312.624-.2044.408.323-.6482l5.3646-10.08 3.8156,2.1962z"/> <path d="m653.6176,208.0213c-1.752-.0959-4.2839.2523-7.5959,1.0448l2.3401-14.0043h11.9883v4.2122h-8.2441l-.9723,5.1119c.5757-.2644 1.2118-.3966 1.9083-.3966h.6471c2.6404,1e-005 4.8607.9123 6.661,2.7367 1.656,1.7036 2.484,3.7914 2.484,6.2633-2e-005,2.2324-.828,4.1525-2.484,5.7601-1.656,1.6326-3.7562,2.4489-6.3007,2.4489-3.8401,0-6.5999-1.3923-8.2793-4.177-.4563-.7917-.8763-1.7157-1.2601-2.7719l4.6791-.8273c.5764,1.7754 1.5725,2.8674 2.9883,3.2761 .5522.1677 1.1763.2516 1.8721.2516 1.56,0 2.7242-.5881 3.4926-1.7644 .4314-.6475.6471-1.3912.6471-2.2313-1e-005-1.8003-.6599-3.1684-1.9797-4.1045-.7676-.5522-1.6315-.8284-2.5917-.8284z"/> <path d="m674.2894,208.0213c-1.752-.0959-4.2839.2523-7.596,1.0448l2.3401-14.0043h11.9883v4.2122h-8.2441l-.9723,5.1119c.5757-.2644 1.2118-.3966 1.9083-.3966h.6471c2.6404,1e-005 4.8607.9123 6.661,2.7367 1.656,1.7036 2.484,3.7914 2.484,6.2633-2e-005,2.2324-.828,4.1525-2.484,5.7601-1.656,1.6326-3.7562,2.4489-6.3007,2.4489-3.8401,0-6.5999-1.3923-8.2793-4.177-.4563-.7917-.8763-1.7157-1.2601-2.7719l4.6791-.8273c.5764,1.7754 1.5725,2.8674 2.9883,3.2761 .5522.1677 1.1763.2516 1.8721.2516 1.56,0 2.7242-.5881 3.4926-1.7644 .4314-.6475.6471-1.3912.6471-2.2313-2e-005-1.8003-.6599-3.1684-1.9797-4.1045-.7676-.5522-1.6315-.8284-2.5917-.8284z"/> <path d="m716.7568-22.3604c-2e-005-1.6077-.564-2.7836-1.6919-3.5277-.5523-.3603-1.1884-.5405-1.9083-.5405-1.44,1.2e-005-2.4719.7083-3.096,2.1248-.2402.5757-.3604,1.1993-.3604,1.871-1e-005,1.6084.5881,2.7726 1.7644,3.4926 .5281.312 1.1041.468 1.7282.468 1.4875,3e-006 2.5433-.6962 3.1674-2.0885 .2644-.5757.3966-1.1755.3966-1.7996zm-5.1119-8.0277 1.6194-.2878c2.9524,1.5e-005 5.1965,1.08 6.7324,3.2399 .9836,1.4158 1.4754,3.1077 1.4755,5.0757-2e-005,2.1841-.8038,4.08-2.4115,5.6876-1.6084,1.5601-3.5764,2.3401-5.904,2.3401-2.6638,0-4.7878-.9957-6.3721-2.9872-1.1997-1.4883-1.7996-3.1805-1.7996-5.0768-1e-005-2.5679.672-5.2438 2.016-8.0277-.312.624-.2044.408.323-.6482l5.3646-10.08 3.8156,2.1962z"/> <path d="m733.9362-18.2207c1.8479,3e-006 3.156-.6958 3.9243-2.0874 .3596-.624.5394-1.3323.5394-2.1248-1e-005-1.5117-.6599-2.7114-1.9797-3.5991-.7676-.5039-1.5956-.7558-2.484-.7559-1.9922,1.2e-005-3.3362.7797-4.032,2.339-.2878.6006-.4318,1.2726-.4318,2.016 0,1.7044.7079,2.9286 2.1237,3.6727 .6965.3596 1.4766.5394 2.3401.5394zm-3.4563-16.0192c-1e-005,1.7754.8763,2.7953 2.629,3.0597 .2637.0476.5394.0714.8273.0714 1.8479,1.7e-005 2.9641-.72 3.3486-2.1599 .0718-.2878.1077-.6116.1077-.9712-2e-005-1.4399-.6361-2.4122-1.9083-2.9169-.4556-.1677-.9837-.2516-1.5842-.2516-1.7754,2.2e-005-2.8671.72-3.275,2.1599-.0967.312-.145.6482-.145,1.0085zm3.42-7.0203c2.8806,2.6e-005 5.1006.9119 6.6599,2.7356 1.0327,1.2239 1.5491,2.6521 1.5491,4.2847-2e-005,2.0156-1.0441,3.7196-3.1322,5.1119l-.1802.1077c1.1279.312 2.1478,1.1638 3.0597,2.5554 .8401,1.2722 1.2601,2.6162 1.2601,4.032-.0484,3.1926-1.3924,5.4968-4.032,6.9126-1.4641.7917-3.204,1.1876-5.2196,1.1876-3.4805,0-6.0366-1.1158-7.6685-3.3475-.9602-1.3198-1.4403-2.904-1.4403-4.7527s.6962-3.5398 2.0885-5.0757c.7676-.8159 1.5117-1.3077 2.2324-1.4755-1.7044-.9844-2.7605-2.3045-3.1685-3.9606-.096-.4079-.1439-.8397-.1439-1.2953-1e-005-2.5444 1.0441-4.4527 3.1322-5.725 1.3674-.8635 3.0351-1.2953 5.0032-1.2953z"/> <path d="m721.78 16.348-7.92 25.596h-5.6876l6.6237-21.132h-10.583v-4.4637z"/> <path d="m733.5225,29.307c-1.752-.0959-4.2839.2523-7.596,1.0448l2.3401-14.0043h11.9883v4.2122h-8.2441l-.9723,5.1119c.5757-.2644 1.2118-.3966 1.9083-.3966h.6471c2.6404,1.6e-005 4.8607.9122 6.661,2.7367 1.656,1.7036 2.484,3.7914 2.484,6.2633-2e-005,2.2324-.828,4.1525-2.484,5.7601-1.656,1.6326-3.7562,2.4489-6.3007,2.4489-3.8401-1e-006-6.5999-1.3923-8.2793-4.177-.4563-.7917-.8763-1.7157-1.2601-2.7719l4.6791-.8273c.5764,1.7754 1.5725,2.8674 2.9883,3.2761 .5522.1677 1.1763.2516 1.8721.2516 1.56,4e-006 2.7242-.5881 3.4926-1.7644 .4314-.6475.6471-1.3912.6471-2.2313-1e-005-1.8003-.6599-3.1684-1.9797-4.1045-.7676-.5522-1.6315-.8284-2.5917-.8284z"/> <path d="m716.1449,96.0991c-2e-005-1.6077-.564-2.7836-1.6919-3.5277-.5523-.3603-1.1884-.5405-1.9083-.5405-1.44,1.2e-005-2.4719.7083-3.096,2.1248-.2402.5757-.3604,1.1993-.3604,1.871-1e-005,1.6084.5881,2.7726 1.7644,3.4926 .5281.312 1.1041.468 1.7282.468 1.4875,1e-005 2.5433-.6962 3.1674-2.0885 .2644-.5757.3966-1.1755.3966-1.7996zm-5.1119-8.0277 1.6194-.2878c2.9524,1.5e-005 5.1965,1.08 6.7324,3.2399 .9836,1.4158 1.4754,3.1077 1.4755,5.0757-2e-005,2.1841-.8038,4.08-2.4115,5.6876-1.6084,1.5601-3.5764,2.3401-5.904,2.3401-2.6638,0-4.7878-.9957-6.3721-2.9872-1.1997-1.4883-1.7996-3.1805-1.7996-5.0768-1e-005-2.5679.672-5.2438 2.016-8.0277-.312.624-.2044.408.323-.6482l5.3646-10.08 3.8156,2.1962z"/> <path d="m729.6888,84.9387-4.1759-1.2239c.4797-2.0639 1.6436-3.6961 3.4914-4.8966 1.248-.8393 2.5562-1.259 3.9243-1.259 2.064,2.6e-005 3.8518.768 5.3635,2.3038 1.6802,1.7278 2.5202,4.0679 2.5203,7.0203-2e-005,1.6553-1.1759,4.1752-3.5277,7.5597 .0959-.1684-.2641.3355-1.08,1.5117l-2.8806,3.7079h8.2804v4.2122h-17.0277l8.3156-10.7281c1.3682-1.9922 2.2199-3.3003 2.5554-3.9243 .5046-.9836.7569-1.7633.757-2.339-1e-005-2.3283-.624-3.9005-1.8721-4.7164-.4321-.2644-.9002-.3966-1.4041-.3966-1.6318,2.2e-005-2.7118,1.0562-3.2399,3.1685z"/> <path d="m716.1449,157.3901c-2e-005-1.6077-.564-2.7836-1.6919-3.5277-.5523-.3603-1.1884-.5405-1.9083-.5405-1.44,1e-005-2.4719.7083-3.096,2.1248-.2402.5757-.3604,1.1993-.3604,1.871-1e-005,1.6084.5881,2.7726 1.7644,3.4926 .5281.312 1.1041.468 1.7282.468 1.4875,0 2.5433-.6962 3.1674-2.0885 .2644-.5757.3966-1.1755.3966-1.7996zm-5.1119-8.0277 1.6194-.2878c2.9524,2e-005 5.1965,1.08 6.7324,3.2399 .9836,1.4158 1.4754,3.1077 1.4755,5.0757-2e-005,2.1841-.8038,4.08-2.4115,5.6876-1.6084,1.5601-3.5764,2.3401-5.904,2.3401-2.6638,0-4.7878-.9957-6.3721-2.9872-1.1997-1.4883-1.7996-3.1805-1.7996-5.0768-1e-005-2.5679.672-5.2438 2.016-8.0277-.312.624-.2044.408.323-.6482l5.3646-10.08 3.8156,2.1962z"/> <path d="m725.1163,159.082 4.5363-1.2239c.5757,1.6077 1.4996,2.6517 2.7719,3.1322 .3362.1201.6841.1802 1.0437.1802 2.7363,1e-005 4.1045-1.2601 4.1045-3.7804-1e-005-1.8237-.924-3.0359-2.7719-3.6365-.6965-.2395-1.4766-.3592-2.3401-.3593h-1.3678v-3.7441l1.3678-.0363c2.0398,2e-005 3.2996-.5877 3.7793-1.7633 .1926-.4804.2889-1.0807.2889-1.8007-1e-005-1.3198-.5643-2.2796-1.693-2.8795-.5274-.2885-1.103-.4328-1.7271-.4329h-.1088c-1.2715,2e-005-2.2075.7083-2.8081,2.1248l-4.3912-1.1887c1.3198-3.4079 3.7559-5.1119 7.3081-5.1119 3.4556,2e-005 5.8553,1.1763 7.1993,3.5288 .624,1.128.936,2.4478.936,3.9595-2e-005,1.9922-1.0199,3.5882-3.0597,4.7878-.0484,1e-005-.1084.0242-.1802.0725 1.0803.2879 2.0522,1.0558 2.9158,2.3038 .9118,1.2722 1.3678,2.6642 1.3678,4.1759-2e-005,3.1443-1.2118,5.4122-3.6354,6.8038-1.4158.8159-3.1439,1.2239-5.1845,1.2239-3.0242,0-5.3643-1.2118-7.0203-3.6354-.5515-.7925-.9954-1.6926-1.3316-2.7004z"/> <path d="m724.62 195.71-7.92 25.596h-5.6876l6.6237-21.132h-10.583v-4.4638z"/> <path d="m728.1222,215.5458 4.5363-1.2239c.5757,1.6077 1.4996,2.6517 2.7719,3.1322 .3362.1201.6841.1802 1.0437.1802 2.7363,0 4.1045-1.2601 4.1045-3.7804-1e-005-1.8237-.924-3.0359-2.7719-3.6365-.6965-.2395-1.4766-.3592-2.3401-.3593h-1.3678v-3.7441l1.3678-.0362c2.0398,1e-005 3.2996-.5877 3.7793-1.7633 .1926-.4804.2889-1.0807.2889-1.8007-1e-005-1.3198-.5643-2.2796-1.693-2.8795-.5274-.2885-1.103-.4328-1.7271-.4329h-.1088c-1.2715,2e-005-2.2075.7083-2.8081,2.1248l-4.3912-1.1887c1.3198-3.4079 3.7559-5.1119 7.3081-5.1119 3.4556,3e-005 5.8553,1.1763 7.1993,3.5288 .624,1.128.936,2.4478.936,3.9595-2e-005,1.9922-1.0199,3.5882-3.0597,4.7878-.0484,1e-005-.1084.0242-.1802.0725 1.0803.2878 2.0522,1.0558 2.9158,2.3038 .9118,1.2722 1.3678,2.6642 1.3678,4.1759-2e-005,3.1443-1.2118,5.4122-3.6354,6.8038-1.4158.8159-3.1439,1.2239-5.1845,1.2239-3.0242,0-5.3643-1.2118-7.0203-3.6354-.5515-.7925-.9954-1.6926-1.3316-2.7004z"/> <path d="m586.08 74.901h8.064v1.8721h-5.9678v2.7358h5.792v1.8721h-5.792v4.896h-2.0962z"/> <path d="m597.9081,79.8449h.7681c1.4613,7e-006 2.2505-.4906 2.3677-1.4717 .0107-.096.0161-.1974.0161-.3042-1e-005-.7679-.6079-1.1945-1.8237-1.2798-.1709-.0107-.3576-.0161-.5601-.0161h-.7681zm3.6641,6.4321-3.0083-4.5278h-.6558v4.5278h-2.0962v-11.376h2.0962 .7681c1.888,1.1e-005 3.216.48 3.9839,1.4399 .3841.4802.5762,1.0562.5762,1.728-1e-005,1.1732-.5174,2.0851-1.5522,2.7358-.3519.2347-.7572.4108-1.2158.5283l3.4878,4.9438z"/> <path d="m605.23 74.901h8.064v1.8721h-5.9678v2.7358h5.6318v1.8721h-5.6318v3.0239h5.9678v1.8721h-8.064z"/> <path d="m615.08 74.901h8.064v1.8721h-5.9678v2.7358h5.6318v1.8721h-5.6318v3.0239h5.9678v1.8721h-8.064z"/> <path d="m580.5092,103.4288 1.936-.6397c.3734.7998.7467,1.3117 1.1201,1.5357 .2985.1921.6665.2881 1.104.2881 .9066,0 1.4772-.3306 1.7119-.9917 .0638-.1816.0957-.3737.0957-.5762-1e-005-.7252-.5173-1.3013-1.5518-1.728-.2347-.096-.4907-.1813-.7681-.2559-1.9307-.5013-3.0506-1.3708-3.3599-2.6084-.0534-.224-.0801-.4533-.0801-.688 0-1.2158.5547-2.1064 1.6641-2.6719 .6292-.3092 1.3493-.4639 2.1601-.4639 1.7598,1.2e-005 2.9971.7253 3.7119,2.1758l-2.064.6084c-.32-.5654-.8215-.8695-1.5044-.9121h-.1758c-1.0986,1e-005-1.648.4212-1.648,1.2637-1e-005,.6507.6133,1.1787 1.8398,1.584l.3843.1123c1.4932.5121 2.4958,1.1307 3.0078,1.856 .3519.5013.5278,1.0773.5278,1.728-1e-005,1.1732-.4852,2.0905-1.4556,2.7519-.7041.4694-1.5361.7041-2.4961.7041-1.9414,0-3.3281-1.0241-4.1601-3.0723z"/> <path d="m592.2675,99.8449h.7842c1.3011,7e-006 2.0744-.3893 2.3198-1.168 .0426-.1387.064-.2879.064-.4478 0-.8642-.64-1.3442-1.9199-1.4399-.1494-.0107-.304-.0161-.4639-.0161h-.7842zm-2.0962-4.9438h2.0962 .7842c1.6745,1.1e-005 2.9277.4479 3.7598,1.3438 .512.5654.7681,1.2269.7681,1.9844-1e-005,1.0453-.4533,1.9092-1.3599,2.5918-.8428.6188-1.8988.9282-3.168.9282h-.7842v4.5278h-2.0962z"/> <path d="m603.65 98.085-1.2319 3.312h2.3359zm1.6958 5.2319h-3.5039l-1.0718 2.96h-2.416l4.3999-11.376h2l3.9678 11.376h-2.3999z"/> <path d="m618.9217,103.861c-.832,1.7813-2.1546,2.6719-3.9678,2.6719-2.1439,0-3.6105-.9653-4.3999-2.896-.3734-.9281-.5601-2.0107-.5601-3.2481 0-2.0586.5547-3.6051 1.6641-4.6396 .832-.7786 1.936-1.168 3.312-1.168 1.3333,1.2e-005 2.416.4852 3.2481,1.4556 .2559.2988.4585.619.6079.9604l-2,.7036c-.3307-.5439-.7681-.9225-1.312-1.1357-.1921-.0749-.3734-.1123-.544-.1123-1.5254,1e-005-2.4214.9227-2.688,2.7681-.0534.3626-.0801.752-.0801,1.168-1e-005,1.7067.3947,2.9281 1.1841,3.6641 .4264.3949.949.5923 1.5679.5923 .7041,0 1.3494-.5228 1.936-1.5684z"/> <path d="m620.44 94.901h8.064v1.8721h-5.9678v2.7358h5.6318v1.8721h-5.6318v3.0239h5.9678v1.8721h-8.064z"/> </g> <path transform="matrix(1.045 0 0 1.0712 435.05 162.57)" d="m270.97-3.1508c0 11.601-9.6395 21.005-21.53 21.005s-21.53-9.4044-21.53-21.005 9.6395-21.005 21.53-21.005 21.53 9.4044 21.53 21.005z" fill="#f00"/> <path transform="matrix(1.045 0 0 1.0712 411.5 259.64)" d="m270.97-3.1508c0 11.601-9.6395 21.005-21.53 21.005s-21.53-9.4044-21.53-21.005 9.6395-21.005 21.53-21.005 21.53 9.4044 21.53 21.005z" fill="#f00"/> <path transform="matrix(1.045 0 0 1.0712 243.45 256.49)" d="m270.97-3.1508c0 11.601-9.6395 21.005-21.53 21.005s-21.53-9.4044-21.53-21.005 9.6395-21.005 21.53-21.005 21.53 9.4044 21.53 21.005z" fill="#f00"/> <path transform="matrix(1.045 0 0 1.0712 311.72 233.38)" d="m270.97-3.1508c0 11.601-9.6395 21.005-21.53 21.005s-21.53-9.4044-21.53-21.005 9.6395-21.005 21.53-21.005 21.53 9.4044 21.53 21.005z" fill="#f00"/> <path transform="matrix(1.045 0 0 1.0712 378.94 240.73)" d="m270.97-3.1508c0 11.601-9.6395 21.005-21.53 21.005s-21.53-9.4044-21.53-21.005 9.6395-21.005 21.53-21.005 21.53 9.4044 21.53 21.005z" fill="#f00"/> <path transform="matrix(1.045 0 0 1.0712 304.37 266.99)" d="m270.97-3.1508c0 11.601-9.6395 21.005-21.53 21.005s-21.53-9.4044-21.53-21.005 9.6395-21.005 21.53-21.005 21.53 9.4044 21.53 21.005z" fill="#f00"/> <g transform="matrix(.99413 .10819 -.10819 .99413 64.375 -50.539)"> <g transform="matrix(1,-.00301,.00301,1,-.26068,.71934)"> <path d="m78.521-102.31h320.71a5 5 0 0 1 5 5v368.57a5 5 0 0 1-5 5h-320.71a5 5 0 0 1-5-5v-368.57a5 5 0 0 1 5-5" fill="#2ca05a" stroke="#000" stroke-linecap="round" stroke-linejoin="round" stroke-width="2"/> <path d="m95.071-32.512h287.66a5.1384 5.1558 0 0 1 5.1384 5.1558v288.63a5.1384 5.1558 0 0 1-5.1384 5.1558h-287.66a5.1384 5.1558 0 0 1-5.1384-5.1558v-288.63a5.1384 5.1558 0 0 1 5.1384-5.1558" fill="#fff"/> <g transform="translate(-12.122 16.162)" fill="none" stroke="#000"> <path d="m100.01 251.36h301.99" stroke-width="2.01"/> <path d="m101-108.64h299" stroke-width="2"/> <path d="m101 191.36h299" stroke-width="2"/> <path d="m101 131.36h299" stroke-width="2"/> <path d="m101 71.362h299" stroke-width="2"/> <path d="m101 11.362h299" stroke-width="2"/> <path d="m101-48.638h299" stroke-width="2"/> <path d="m101 251.16v-360.8" stroke-width="2.197"/> <path d="m161 251.35v-299" stroke-width="2"/> <path d="m221 251.35v-299" stroke-width="2"/> <path d="m281 251.35v-299" stroke-width="2"/> <path d="m341 251.35v-299" stroke-width="2"/> <path d="m401 251.16v-360.79" stroke-width="2.197"/> </g> </g> <path d="m111.1801-61.8475 .0247,8.1994 4.4397-.0134c2.9337-.0088 4.7175-.9875 5.3513-2.936 .1322-.4268.1976-.8669.1962-1.3202-.004-1.2801-.6869-2.3181-2.0492-3.114-.962-.557-2.1363-.8334-3.523-.8292zm-.0329-10.9204 .0189,6.2805 3.2007-.0096c2.2127-.0066 3.677-.7178 4.393-2.1336 .1853-.3472.2774-.6942.2764-1.0409-.004-1.1735-.6592-2.0382-1.9671-2.5942-.801-.3442-1.8151-.5145-3.0423-.5109l-2.8394.0085zm-5.2532-4.6241 8.1189-.0244c5.734-.0172 9.0598,1.7859 9.9773,5.4094 .1353.6132.2039,1.2396.2059,1.8793 .008,2.5334-.9205,4.3099-2.7843,5.3294-.3193.1873-.6521.3348-.9984.4425 2.4016.5527 4.1385,1.8674 5.2109,3.9443 .4828.9051.7256,1.7845.7281,2.6382 .0131,4.3465-1.9254,7.0721-5.8153,8.1767-1.3855.4046-3.0117.6097-4.8785.6153l-9.6789.0291z" fill="#ff0"/> <path d="m176.81-49.166-0.0856-28.44 5.2392-0.0158 0.0856 28.44z" fill="#ff0"/> <path d="m228.14-49.32-0.0856-28.44 5.0793-0.0153 11.255 18.326-0.0553-18.359 5.2405-0.0158 0.0856 28.44-5.1599 0.0155-11.178-18.967 0.0572 19z" fill="#ff0"/> <path d="m298.8316-48.2136c-4.6134.0139-8.0063-2.0694-10.1788-6.2499-1.341-2.6359-2.0166-5.6739-2.0269-9.1138-.0124-4.1064 1.0305-7.4962 3.1286-10.1694 2.1522-2.8059 5.1615-4.2147 9.0279-4.2264 2.9866-.009 5.4564,1.0367 7.4094,3.1369 .7494.7717 1.3388,1.6501 1.7682,2.6351l-5.0352,1.6949c-.2427-.8521-1.0449-1.6098-2.4068-2.273-.6944-.3446-1.2683-.5162-1.7215-.5148-2.4536.0074-4.3029,1.3867-5.5479,4.1378-.7412,1.6819-1.1088,3.5361-1.1027,5.5624 .01,3.3073.7379,6.0118 2.1839,8.1136 1.1788,1.7567 2.6748,2.6323 4.4879,2.6269 2.9606-.0089 4.796-1.5212 5.5064-4.5369 .1848-.7737.276-1.5873.2734-2.441l-5.9204.0178-.0141-4.6802 11.3598-.0342 .009,2.8406c.0131,4.3465-1.0835,7.7499-3.2896,10.2101-1.9401,2.1657-4.5768,3.2535-7.9101,3.2636z" fill="#ff0"/> <path d="m364.2719-63.811c-.0118-3.92-.9402-6.7037-2.7852-8.351-1.0158-.8766-2.257-1.3128-3.7234-1.3084-2.9598.0089-4.928,1.7613-5.9046,5.2571-.3687,1.335-.5506,2.8154-.5457,4.4414 .0123,4.0804.8879,7.038 2.6268,8.8727 1.0426,1.1167 2.3374,1.6727 3.8844,1.668 2.9069-.0087 4.8614-1.8546 5.8635-5.5377 .3951-1.4945.5898-3.1752.5842-5.0421zm-18.4789.0556c-.0115-3.8126.9252-7.0552 2.8101-9.7277 2.1774-3.0998 5.2261-4.6556 9.1462-4.6674 4.5336-.0136 7.8729,1.9628 10.0179,5.9293 1.3404,2.4765 2.0154,5.2743 2.0248,8.3936 .0122,4.0535-.9239,7.5097-2.8082,10.3686-2.1768,3.287-5.2253,4.9364-9.1453,4.9482-4.4002.0132-7.6998-2.0305-9.8989-6.1311-1.4208-2.6617-2.1363-5.6996-2.1466-9.1135z" fill="#ff0"/> <path d="m116.38-10.463-2.2612 2.1316-3.0347-3.3758 5.3508-4.5875 4.6439-0.014 0.077 25.596-4.7164 0.0142z"/> <path d="m124.91 102.82-7.843 25.62-5.6876 0.0171 6.56-21.152-10.583 0.0319-0.0134-4.4637z"/> <path d="m166.9845-9.9667-2.2612,2.1316-3.0347-3.3758 5.3508-4.5875 4.6439-.014 .077,25.5958-4.7164.0142z"/> <path d="m192.7338,2.2683c-.005-1.6076-.5723-2.7818-1.7025-3.5226-.5534-.3587-1.19-.5369-1.91-.5348-1.44.0043-2.4698.7157-3.0895,2.1341-.2385.5764-.3568,1.2004-.3547,1.872 .005,1.6084.5965,2.7708 1.7749,3.4872 .529.3104 1.1055.4647 1.7295.4628 1.4875-.0045 2.5412-.7038 3.1611-2.098 .2627-.5765.3931-1.1767.3912-1.8007zm-5.1361-8.0123 1.6185-.2927c2.9524-.0089 5.1997,1.0643 6.7421,3.2196 .9879,1.4128 1.4848,3.1032 1.4907,5.0712 .007,2.1841-.7916,4.0824-2.3944,5.6949-1.6037,1.5649-3.5694,2.3508-5.897,2.3578-2.6638.008-4.7908-.9813-6.381-2.968-1.2042-1.4847-1.8091-3.1751-1.8148-5.0713-.008-2.5678.6562-5.2458 1.9918-8.0337l.3211-.6492 5.3343-10.0961 3.8221,2.1847z"/> <path d="m166.672,47.7136-2.2612,2.1316-3.0347-3.3758 5.3509-4.5875 4.6439-.014 .077,25.5958-4.7164.0142z"/> <path d="m188.9412,64.2484c1.8479-.0056 3.1539-.7053 3.918-2.0992 .3577-.6251.5354-1.3339.533-2.1264-.005-1.5117-.6681-2.7094-1.9906-3.5931-.7691-.5016-1.5979-.751-2.4863-.7484-1.9922.006-3.3338.7897-4.0249,2.3511-.286.6015-.4279,1.2739-.4257,2.0173 .005,1.7043.7167,2.9265 2.1347,3.6663 .6976.3575 1.4782.535 2.3417.5324zm-3.5045-16.0087c.005,1.7754.8847,2.7927 2.6382,3.0518 .2638.0468.5396.0698.8275.0689 1.8479-.0055 2.9619-.7289 3.3421-2.17 .0709-.288.1058-.6119.1047-.9715-.004-1.4399-.6434-2.4103-1.9171-2.9111-.4561-.1663-.9844-.2486-1.585-.2468-1.7754.0054-2.8649.7286-3.2685,2.1698-.0958.3123-.1431.6486-.142,1.009zm3.3989-7.0305c2.8806-.0086 5.1033.8965 6.6681,2.7155 1.0364,1.2208 1.557,2.6474 1.562,4.28 .006,2.0156-1.0329,3.7227-3.1168,5.1213l-.1799.1082c1.1288.3086 2.1513,1.1574 3.0674,2.5462 .8439,1.2697 1.268,2.6124 1.2723,4.0282-.0388,3.1928-1.3758,5.501-4.0112,6.9247-1.4617.7962-3.2004,1.1973-5.216,1.2033-3.4805.0105-6.04-1.0977-7.6785-3.3244-.9642-1.3169-1.449-2.8997-1.4546-4.7483s.6855-3.5419 2.0732-5.0819c.7651-.8182 1.5078-1.3123 2.228-1.4822-1.7073-.9792-2.7674-2.2962-3.1804-3.951-.0972-.4077-.1465-.8393-.1478-1.2948-.008-2.5444 1.0307-4.4559 3.115-5.7344 1.3648-.8676 3.0312-1.3044 4.9993-1.3103z"/> <path d="m166.1747,109.7191-4.1796-1.2113c.4735-2.0654 1.6324-3.7011 3.4767-4.9071 1.2455-.8431 2.5523-1.2667 3.9205-1.2708 2.0639-.006 3.8541.7564 5.3704,2.2877 1.6853,1.7227 2.5325,4.0603 2.5414,7.0126 .005,1.6553-1.1634,4.1787-3.5049,7.5703 .0954-.1687-.263.3362-1.0754,1.515l-2.8695,3.7165 8.2804-.0249 .0127,4.2121-17.0276.0512 8.2832-10.7531c1.3622-1.9963 2.21-3.3069 2.5436-3.932 .5017-.9851.7516-1.7656.7499-2.3413-.007-2.3283-.6358-3.8986-1.8863-4.7108-.4329-.2631-.9013-.3939-1.4052-.3924-1.6318.005-2.7086,1.0643-3.2303,3.1782z"/> <path d="m186.8464,109.6569-4.1796-1.2113c.4735-2.0654 1.6324-3.7011 3.4767-4.9071 1.2455-.8431 2.5524-1.2667 3.9205-1.2709 2.0639-.006 3.8541.7564 5.3704,2.2877 1.6853,1.7227 2.5325,4.0603 2.5414,7.0126 .005,1.6553-1.1634,4.1787-3.5049,7.5703 .0954-.1687-.263.3362-1.0754,1.515l-2.8694,3.7165 8.2804-.0249 .0127,4.2121-17.0276.0513 8.2832-10.7531c1.3622-1.9963 2.21-3.3069 2.5436-3.932 .5017-.9851.7516-1.7656.7499-2.3413-.007-2.3283-.6358-3.8986-1.8863-4.7108-.4329-.2631-.9013-.3939-1.4052-.3924-1.6318.005-2.7086,1.0643-3.2303,3.1782z"/> <path d="m167.15 169.1-2.2612 2.1316-3.0347-3.3758 5.3508-4.5875 4.6439-0.014 0.077 25.596-4.7164 0.0142z"/> <path d="m198.31 163.17-7.843 25.62-5.6876 0.0171 6.56-21.152-10.583 0.0318-0.0134-4.4637z"/> <path d="m166.0785,227.2589-4.1796-1.2113c.4735-2.0654 1.6324-3.7011 3.4767-4.9071 1.2455-.8431 2.5523-1.2667 3.9205-1.2708 2.064-.006 3.8541.7564 5.3704,2.2877 1.6854,1.7227 2.5325,4.0603 2.5414,7.0126 .005,1.6553-1.1634,4.1787-3.5049,7.5703 .0954-.1687-.263.3363-1.0754,1.515l-2.8694,3.7165 8.2804-.0249 .0127,4.2121-17.0276.0512 8.2832-10.7531c1.3622-1.9963 2.21-3.3069 2.5436-3.932 .5017-.9851.7516-1.7656.7499-2.3413-.007-2.3283-.6358-3.8986-1.8863-4.7108-.4329-.2631-.9013-.3939-1.4053-.3924-1.6318.005-2.7086,1.0643-3.2303,3.1782z"/> <path d="m190.4327,242.2438c1.8479-.006 3.1539-.7053 3.918-2.0992 .3577-.6251.5354-1.3339.533-2.1264-.005-1.5117-.6681-2.7094-1.9906-3.5931-.7691-.5016-1.5979-.7511-2.4863-.7484-1.9922.006-3.3338.7897-4.0249,2.3511-.286.6015-.4279,1.2739-.4257,2.0173 .005,1.7043.7167,2.9265 2.1347,3.6663 .6976.3575 1.4782.535 2.3417.5324zm-3.5045-16.0087c.005,1.7754.8847,2.7927 2.6382,3.0518 .2638.0468.5396.0698.8275.0689 1.8479-.006 2.9619-.7289 3.3421-2.17 .0709-.288.1058-.6119.1047-.9715-.004-1.4399-.6434-2.4103-1.9171-2.9111-.4561-.1663-.9844-.2486-1.585-.2468-1.7754.005-2.8649.7286-3.2685,2.1698-.0958.3123-.1431.6486-.142,1.009zm3.3989-7.0305c2.8806-.009 5.1033.8965 6.6681,2.7155 1.0364,1.2208 1.557,2.6474 1.562,4.28 .006,2.0156-1.0329,3.7228-3.1168,5.1213l-.1799.1082c1.1288.3086 2.1513,1.1574 3.0674,2.5462 .8439,1.2697 1.268,2.6124 1.2723,4.0282-.0388,3.1928-1.3758,5.501-4.0111,6.9247-1.4617.7962-3.2004,1.1973-5.216,1.2033-3.4805.0105-6.04-1.0977-7.6785-3.3245-.9642-1.3169-1.449-2.8997-1.4546-4.7483s.6855-3.5419 2.0732-5.082c.7651-.8182 1.5078-1.3123 2.228-1.4822-1.7073-.9792-2.7674-2.2962-3.1804-3.951-.0972-.4077-.1465-.8393-.1478-1.2949-.008-2.5444 1.0307-4.4559 3.1149-5.7344 1.3648-.8676 3.0312-1.3044 4.9993-1.3103z"/> <path d="m235.0559-15.7867 .0455,15.1193 3.3124-.01 .0126,4.1759-3.3124.01 .0184,6.1205-4.7153.0142-.0184-6.1205-10.8006.0325 10.3817-19.5068 .3604-.0011 4.7153-.0142 .1088-.0003zm-4.5534,5.9892-4.9768,9.1238 5.0042-.0151z"/> <path d="m241.1129-3.6727c-.0128-4.248.9611-7.6109 2.9217-10.0888 1.5542-1.9492 3.4951-2.9274 5.8228-2.9344 3-.009 5.2846,1.5204 6.8539,4.5882 1.1831,2.2765 1.7797,5.0707 1.7896,8.3827 .0138,4.6077-.9593,8.2104-2.9195,10.8084-1.5297,2.0444-3.4467,3.0701-5.7509,3.077-2.904.0087-5.165-1.5445-6.7827-4.6598-1.279-2.4915-1.9239-5.5493-1.9348-9.1733zm4.7153-.0142c.0108,3.5757.5711,6.262 1.681,8.0589 .6506,1.03 1.4201,1.5437 2.3085,1.541 1.5842-.0048 2.7318-1.4965 3.4429-4.4752 .3549-1.5604.5295-3.2766.5239-5.1487-.0105-3.4804-.5941-5.999-1.7509-7.5556-.6022-.7899-1.3234-1.1836-2.1635-1.1811-1.5117.0046-2.6359,1.256-3.3725,3.7543-.4518,1.5131-.6749,3.1819-.6694,5.0063z"/> <path d="m234.903,42.0483 .0455,15.1193 3.3124-.01 .0126,4.1759-3.3124.01 .0184,6.1205-4.7153.0142-.0184-6.1205-10.8006.0325 10.3817-19.5068 .3604-.0011 4.7153-.0142 .1088-.0003zm-4.5534,5.9892-4.9768,9.1238 5.0042-.0151z"/> <path d="m249.7817,54.5749c-1.7522-.0907-4.2832.2652-7.5928,1.0677l2.2979-14.0113 11.9882-.0361 .0127,4.2121-8.2441.0248-.9569,5.1148c.5749-.2661 1.2106-.4002 1.9071-.4023l.6471-.0019c2.6404-.0079 4.8634.8976 6.6692,2.7166 1.6611,1.6986 2.4954,3.7839 2.5028,6.2558 .007,2.2324-.8155,4.1549-2.4667,5.7676-1.6511,1.6375-3.7489,2.4601-6.2933,2.4678-3.8401.0116-6.604-1.3725-8.2918-4.1521-.4587-.7904-.8815-1.713-1.2685-2.768l4.6766-.8413c.5817,1.7737 1.5811,2.8627 2.9981,3.2671 .5527.1661 1.177.248 1.8728.246 1.56-.0047 2.7224-.5963 3.4872-1.7749 .4294-.6488.6429-1.3932.6404-2.2333-.005-1.8003-.6695-3.1664-1.9921-4.0985-.7692-.5499-1.634-.8234-2.5942-.8206z"/> <path d="m221.0223,183.6615 4.5325-1.2375c.5805,1.6059 1.5076,2.6472 2.7813,3.1239 .3365.1191.6846.1781 1.0442.177 2.7363-.008 4.1007-1.2725 4.0931-3.7927-.006-1.8237-.9331-3.0331-2.7828-3.6281-.6973-.2374-1.4776-.3548-2.3412-.3522l-1.3678.004-.0113-3.7441 1.3677-.0404c2.0398-.006 3.2978-.5977 3.774-1.7747 .1912-.481.2857-1.0815.2835-1.8015-.004-1.3198-.5712-2.2779-1.7017-2.8744-.5282-.287-1.1043-.4295-1.7283-.4277l-.1088.0003c-1.2715.004-2.2054.7149-2.8017,2.1332l-4.3948-1.1755c1.3096-3.4119 3.7405-5.1232 7.2927-5.1339 3.4555-.0104 5.8588,1.1587 7.2099,3.5071 .6274,1.1261.9434,2.4449.9479,3.9566 .006,1.9922-1.0091,3.5912-3.0453,4.797-.0484.0002-.1083.0245-.18.073 1.0812.2846 2.0554,1.0496 2.9227,2.295 .9157,1.2695 1.3758,2.6601 1.3804,4.1718 .009,3.1443-1.1955,5.4159-3.6149,6.8147-1.4133.8202-3.1402,1.2333-5.1807,1.2395-3.0242.009-5.3679-1.1957-7.0312-3.6142-.5539-.7908-1.0005-1.6896-1.3397-2.6964z"/> <path d="m246.2269,170.4097-4.1796-1.2113c.4735-2.0654 1.6324-3.7011 3.4767-4.9071 1.2455-.8431 2.5523-1.2667 3.9205-1.2708 2.064-.006 3.8541.7564 5.3704,2.2877 1.6853,1.7227 2.5325,4.0603 2.5414,7.0126 .005,1.6553-1.1634,4.1787-3.5049,7.5703 .0954-.1687-.263.3362-1.0754,1.515l-2.8695,3.7165 8.2804-.0249 .0127,4.2121-17.0276.0513 8.2832-10.7531c1.3622-1.9963 2.21-3.307 2.5436-3.932 .5017-.9851.7516-1.7656.7499-2.3413-.007-2.3283-.6358-3.8986-1.8863-4.7108-.4329-.2631-.9013-.3939-1.4053-.3924-1.6318.005-2.7086,1.0643-3.2303,3.1782z"/> <path d="m220.8508,240.1986 4.5326-1.2375c.5805,1.6059 1.5076,2.6472 2.7813,3.1239 .3365.1191.6846.1781 1.0442.177 2.7363-.008 4.1007-1.2725 4.0931-3.7927-.006-1.8237-.9331-3.0331-2.7828-3.6281-.6973-.2374-1.4776-.3548-2.3411-.3522l-1.3678.004-.0113-3.7441 1.3677-.0404c2.0398-.006 3.2978-.5977 3.774-1.7747 .1912-.481.2857-1.0815.2835-1.8015-.004-1.3198-.5712-2.2779-1.7017-2.8744-.5282-.287-1.1043-.4295-1.7284-.4277l-.1088.0003c-1.2715.004-2.2054.7149-2.8017,2.1332l-4.3948-1.1755c1.3096-3.4119 3.7405-5.1232 7.2927-5.1339 3.4555-.0104 5.8588,1.1587 7.2099,3.5071 .6274,1.1261.9434,2.445.9479,3.9566 .006,1.9922-1.0091,3.5912-3.0453,4.797-.0484.0002-.1083.0245-.18.073 1.0812.2846 2.0554,1.0496 2.9227,2.295 .9157,1.2695 1.3758,2.6601 1.3804,4.1718 .009,3.1443-1.1955,5.4158-3.6149,6.8147-1.4133.8202-3.1402,1.2333-5.1807,1.2395-3.0242.009-5.3679-1.1956-7.0312-3.6142-.5539-.7908-1.0005-1.6896-1.3397-2.6964z"/> <path d="m258.63 219.85-7.843 25.62-5.6876 0.0171 6.56-21.152-10.583 0.0318-0.0134-4.4637z"/> <path d="m294.341-16.6496 .0455,15.1193 3.3124-.01 .0126,4.1759-3.3124.01 .0184,6.1205-4.7153.0142-.0184-6.1205-10.8006.0325 10.3817-19.5068 .3604-.0011 4.7153-.0142 .1088-.0003zm-4.5534,5.9892-4.9768,9.1238 5.0042-.0151z"/> <path d="m318.11-16.901-7.843 25.62-5.6876 0.0171 6.56-21.152-10.583 0.0319-0.0134-4.4637z"/> <path d="m288.6145,54.5749c-1.7522-.0907-4.2832.2652-7.5928,1.0677l2.2979-14.0113 11.9882-.0361 .0127,4.2121-8.2441.0248-.9569,5.1148c.5749-.2661 1.2106-.4002 1.9071-.4023l.6471-.0019c2.6404-.0079 4.8634.8976 6.6692,2.7166 1.6611,1.6986 2.4954,3.7839 2.5029,6.2558 .007,2.2324-.8155,4.1549-2.4667,5.7676-1.6511,1.6375-3.7489,2.4601-6.2933,2.4678-3.8401.0116-6.604-1.3725-8.2918-4.1521-.4587-.7904-.8815-1.713-1.2685-2.768l4.6766-.8413c.5817,1.7737 1.5811,2.8627 2.9981,3.2671 .5527.1661 1.177.248 1.8728.246 1.56-.0047 2.7224-.5963 3.4872-1.7749 .4294-.6488.6429-1.3932.6404-2.2333-.005-1.8003-.6694-3.1664-1.9921-4.0985-.7692-.5499-1.634-.8234-2.5942-.8206z"/> <path d="m300.4646,54.268c-.0128-4.248.9611-7.6109 2.9217-10.0888 1.5542-1.9492 3.4951-2.9274 5.8227-2.9344 3-.009 5.2846,1.5204 6.8539,4.5882 1.1831,2.2765 1.7797,5.0707 1.7896,8.3827 .0138,4.6077-.9593,8.2104-2.9195,10.8084-1.5298,2.0444-3.4467,3.0701-5.7509,3.077-2.904.0087-5.165-1.5445-6.7827-4.6598-1.279-2.4915-1.9239-5.5493-1.9348-9.1733zm4.7153-.0142c.0108,3.5757.5711,6.262 1.681,8.0589 .6505,1.03 1.4201,1.5437 2.3085,1.541 1.5842-.0048 2.7318-1.4965 3.4428-4.4752 .3549-1.5604.5296-3.2766.5239-5.1487-.0105-3.4804-.5941-5.999-1.7509-7.5556-.6022-.7899-1.3234-1.1836-2.1635-1.1811-1.5117.0046-2.6359,1.256-3.3725,3.7543-.4517,1.5131-.6749,3.1819-.6694,5.0063z"/> <path d="m295.0777,102.5279 .0455,15.1193 3.3124-.01 .0126,4.1759-3.3124.01 .0184,6.1205-4.7153.0142-.0184-6.1205-10.8006.0325 10.3817-19.5068 .3603-.001 4.7153-.0142 .1088-.0003zm-4.5534,5.9892-4.9768,9.1238 5.0042-.0151z"/> <path d="m313.4283,120.4365c-.005-1.6077-.5724-2.7818-1.7025-3.5226-.5533-.3587-1.19-.5369-1.9099-.5348-1.4399.004-2.4698.7157-3.0895,2.1341-.2385.5764-.3568,1.2004-.3547,1.8721 .005,1.6084.5965,2.7708 1.7749,3.4872 .529.3104 1.1055.4647 1.7295.4628 1.4875-.004 2.5412-.7038 3.1611-2.098 .2626-.5765.3931-1.1767.3912-1.8008zm-5.1361-8.0123 1.6185-.2927c2.9524-.009 5.1997,1.0643 6.7421,3.2196 .9879,1.4128 1.4848,3.1032 1.4907,5.0712 .007,2.1841-.7916,4.0824-2.3944,5.6948-1.6037,1.5649-3.5694,2.3508-5.897,2.3579-2.6638.008-4.7908-.9813-6.381-2.968-1.2042-1.4847-1.8091-3.1751-1.8148-5.0713-.008-2.5679.6562-5.2458 1.9918-8.0337l.3211-.6492 5.3343-10.0961 3.8221,2.1847z"/> <path d="m288.656,175.862c-1.7522-.0906-4.2832.2652-7.5928,1.0677l2.2979-14.0113 11.9882-.0361 .0127,4.2121-8.2441.0248-.9569,5.1148c.5749-.2661 1.2106-.4002 1.9071-.4023l.6471-.002c2.6404-.008 4.8634.8976 6.6692,2.7166 1.6611,1.6986 2.4954,3.7839 2.5029,6.2558 .007,2.2324-.8155,4.1549-2.4667,5.7676-1.6511,1.6375-3.7489,2.4601-6.2933,2.4678-3.8401.0115-6.604-1.3725-8.2918-4.1521-.4587-.7904-.8815-1.713-1.2685-2.768l4.6766-.8414c.5817,1.7737 1.5811,2.8627 2.9981,3.2671 .5527.1661 1.177.248 1.8728.246 1.56-.005 2.7224-.5963 3.4872-1.7749 .4294-.6488.6429-1.3932.6404-2.2333-.005-1.8003-.6695-3.1664-1.9921-4.0985-.7692-.5499-1.634-.8234-2.5942-.8206z"/> <path d="m309.3278,175.7998c-1.7522-.0906-4.2832.2652-7.5928,1.0677l2.2979-14.0113 11.9882-.0361 .0127,4.2121-8.2441.0248-.9569,5.1148c.5749-.2661 1.2106-.4002 1.9071-.4023l.6471-.002c2.6404-.008 4.8634.8976 6.6692,2.7166 1.6611,1.6986 2.4954,3.7839 2.5029,6.2558 .007,2.2324-.8155,4.1549-2.4667,5.7676-1.6511,1.6376-3.7489,2.4602-6.2933,2.4678-3.8401.0115-6.604-1.3725-8.2918-4.1521-.4587-.7904-.8815-1.7131-1.2685-2.7681l4.6766-.8413c.5817,1.7736 1.5811,2.8627 2.9981,3.2671 .5527.1661 1.177.248 1.8728.2459 1.56-.005 2.7224-.5963 3.4872-1.7749 .4294-.6488.6429-1.3932.6404-2.2333-.005-1.8003-.6695-3.1664-1.9921-4.0985-.7692-.5499-1.634-.8234-2.5942-.8206z"/> <path d="m288.8625,232.4331c-1.7522-.0906-4.2832.2652-7.5928,1.0677l2.2979-14.0113 11.9882-.0361 .0127,4.2121-8.2441.0248-.9569,5.1148c.5749-.2661 1.2106-.4002 1.9071-.4023l.6471-.002c2.6404-.008 4.8634.8976 6.6692,2.7166 1.6611,1.6986 2.4954,3.7839 2.5029,6.2558 .007,2.2324-.8155,4.1549-2.4667,5.7676-1.6511,1.6376-3.7489,2.4601-6.2933,2.4678-3.8401.0116-6.604-1.3725-8.2918-4.1521-.4587-.7904-.8815-1.7131-1.2685-2.7681l4.6766-.8413c.5817,1.7736 1.5811,2.8627 2.9981,3.2671 .5527.1661 1.177.248 1.8728.246 1.56-.005 2.7224-.5963 3.4872-1.7749 .4294-.6488.6429-1.3932.6404-2.2333-.005-1.8003-.6695-3.1664-1.9921-4.0985-.7692-.5499-1.634-.8235-2.5942-.8206z"/> <path d="m315.3274,220.0436 .0455,15.1193 3.3124-.01 .0126,4.1759-3.3124.01 .0184,6.1204-4.7153.0142-.0184-6.1204-10.8006.0325 10.3816-19.5068 .3604-.001 4.7153-.0142 .1088-.0003zm-4.5534,5.9892-4.9768,9.1238 5.0043-.0151z"/> <path d="m356.72-16.298-7.843 25.62-5.6876 0.0171 6.56-21.152-10.583 0.0319-0.0134-4.4637z"/> <path d="m364.8175-9.6623-4.1796-1.2113c.4735-2.0654 1.6324-3.7011 3.4767-4.9071 1.2455-.8431 2.5523-1.2667 3.9205-1.2708 2.0639-.0062 3.8541.7564 5.3704,2.2877 1.6853,1.7227 2.5325,4.0603 2.5414,7.0126 .005,1.6553-1.1634,4.1787-3.5049,7.5703 .0954-.1687-.263.3363-1.0754,1.515l-2.8695,3.7165 8.2804-.0249 .0127,4.2121-17.0276.0512 8.2832-10.7531c1.3621-1.9963 2.21-3.3069 2.5436-3.932 .5017-.9851.7516-1.7656.7499-2.3413-.007-2.3283-.6358-3.8986-1.8863-4.7108-.4329-.2631-.9013-.3939-1.4052-.3924-1.6319.0049-2.7086,1.0643-3.2303,3.1782z"/> <path d="m356.45 41.854-7.843 25.62-5.6876 0.0171 6.56-21.152-10.583 0.0319-0.0134-4.4637z"/> <path d="m374.0223,42.0483 .0455,15.1193 3.3124-.01 .0126,4.1759-3.3124.01 .0184,6.1205-4.7153.0142-.0184-6.1205-10.8006.0325 10.3817-19.5068 .3604-.0011 4.7153-.0142 .1088-.0003zm-4.5534,5.9892-4.9768,9.1238 5.0042-.0151z"/> <path d="m351.0527,120.3232c-.005-1.6077-.5724-2.7818-1.7025-3.5226-.5533-.3587-1.19-.5369-1.91-.5348-1.4399.004-2.4698.7157-3.0895,2.1341-.2385.5764-.3568,1.2004-.3547,1.8721 .005,1.6084.5965,2.7708 1.7749,3.4872 .529.3104 1.1055.4647 1.7295.4628 1.4875-.004 2.5412-.7038 3.1611-2.098 .2627-.5765.3931-1.1767.3912-1.8008zm-5.1361-8.0123 1.6185-.2927c2.9524-.009 5.1997,1.0643 6.7421,3.2196 .9879,1.4128 1.4848,3.1032 1.4907,5.0712 .007,2.1841-.7916,4.0824-2.3944,5.6948-1.6037,1.5649-3.5694,2.3508-5.897,2.3579-2.6638.008-4.7908-.9813-6.381-2.968-1.2042-1.4847-1.8091-3.1751-1.8148-5.0713-.008-2.5679.6562-5.2458 1.9918-8.0337l.3211-.6492 5.3343-10.0961 3.8221,2.1847z"/> <path d="m374.0457,102.2902 .0455,15.1193 3.3124-.01 .0126,4.1759-3.3124.01 .0184,6.1205-4.7153.0142-.0184-6.1205-10.8006.0325 10.3817-19.5068 .3604-.001 4.7153-.0142 .1088-.0003zm-4.5534,5.9892-4.9768,9.1238 5.0042-.0151z"/> <path d="m351.2372,181.614c-.005-1.6077-.5723-2.7818-1.7025-3.5226-.5533-.3587-1.19-.5369-1.91-.5348-1.4399.004-2.4698.7157-3.0895,2.1341-.2385.5764-.3568,1.2004-.3547,1.872 .005,1.6084.5965,2.7708 1.7749,3.4872 .529.3104 1.1055.4647 1.7295.4628 1.4875-.004 2.5412-.7038 3.1611-2.098 .2627-.5765.3931-1.1767.3912-1.8007zm-5.1361-8.0123 1.6185-.2927c2.9524-.009 5.1997,1.0643 6.7421,3.2196 .9879,1.4128 1.4848,3.1032 1.4907,5.0712 .007,2.1841-.7916,4.0824-2.3944,5.6949-1.6037,1.5649-3.5694,2.3508-5.897,2.3578-2.6638.008-4.7908-.9813-6.381-2.968-1.2042-1.4847-1.8091-3.1751-1.8148-5.0713-.008-2.5678.6562-5.2458 1.9918-8.0337l.321-.6492 5.3343-10.0961 3.8222,2.1847z"/> <path d="m368.4289,185.7019c1.8479-.006 3.1539-.7053 3.918-2.0992 .3577-.6251.5354-1.3339.533-2.1264-.005-1.5117-.6681-2.7094-1.9906-3.5932-.7691-.5016-1.5979-.751-2.4863-.7484-1.9922.006-3.3338.7897-4.0249,2.3511-.286.6015-.4279,1.2739-.4257,2.0173 .005,1.7043.7167,2.9264 2.1347,3.6663 .6976.3575 1.4782.535 2.3417.5324zm-3.5045-16.0087c.005,1.7754.8847,2.7927 2.6382,3.0518 .2638.0468.5396.0698.8275.0689 1.8479-.006 2.9619-.7289 3.3421-2.17 .0709-.288.1058-.6119.1047-.9715-.004-1.4399-.6434-2.4103-1.9171-2.9111-.4561-.1663-.9844-.2486-1.585-.2468-1.7754.005-2.8649.7286-3.2685,2.1698-.0958.3123-.1431.6486-.142,1.009zm3.3989-7.0305c2.8806-.009 5.1033.8965 6.6681,2.7155 1.0364,1.2208 1.557,2.6475 1.5619,4.28 .006,2.0156-1.0329,3.7227-3.1168,5.1213l-.1798.1082c1.1288.3086 2.1513,1.1574 3.0674,2.5462 .8439,1.2697 1.268,2.6124 1.2723,4.0282-.0388,3.1928-1.3758,5.501-4.0111,6.9247-1.4617.7962-3.2004,1.1972-5.216,1.2033-3.4805.0105-6.04-1.0977-7.6785-3.3244-.9642-1.3169-1.449-2.8997-1.4546-4.7483s.6855-3.5419 2.0732-5.0819c.7651-.8182 1.5078-1.3123 2.228-1.4822-1.7073-.9792-2.7674-2.2962-3.1804-3.951-.0971-.4077-.1465-.8393-.1478-1.2949-.008-2.5444 1.0307-4.4558 3.115-5.7344 1.3648-.8676 3.0312-1.3044 4.9993-1.3103z"/> <path d="m354.413,238.0684c-.005-1.6077-.5724-2.7818-1.7025-3.5226-.5534-.3587-1.19-.5369-1.91-.5348-1.44.004-2.4698.7157-3.0895,2.1341-.2385.5764-.3568,1.2004-.3547,1.8721 .005,1.6084.5965,2.7708 1.7749,3.4872 .529.3104 1.1055.4647 1.7295.4628 1.4875-.004 2.5412-.7038 3.1611-2.098 .2627-.5765.3931-1.1767.3912-1.8008zm-5.1361-8.0123 1.6185-.2927c2.9524-.009 5.1997,1.0643 6.7421,3.2196 .9879,1.4128 1.4848,3.1032 1.4907,5.0712 .007,2.1841-.7916,4.0824-2.3944,5.6948-1.6037,1.5649-3.5694,2.3508-5.897,2.3579-2.6638.008-4.7908-.9813-6.381-2.968-1.2042-1.4847-1.8091-3.1751-1.8148-5.0713-.008-2.5679.6562-5.2458 1.9918-8.0337l.3211-.6492 5.3343-10.0961 3.8221,2.1847z"/> <path d="m370.01 225.71-2.2612 2.1316-3.0347-3.3758 5.3508-4.5875 4.6439-0.014 0.077 25.596-4.7164 0.0142z"/> <path d="m220.9212,99.5167 8.0639-.0243 .006,1.8721-5.9677.018 .008,2.7358 5.792-.0174 .006,1.8721-5.792.0174 .0147,4.896-2.0962.006z"/> <path d="m232.7675,104.4249 .7681-.002c1.4612-.004 2.249-.4973 2.3632-1.4788 .0104-.096.0155-.1975.0152-.3043-.002-.7679-.6115-1.1927-1.8276-1.2743-.1709-.0102-.3576-.015-.5601-.0144l-.7681.002zm3.6834,6.4211-3.0219-4.5188-.6558.002 .0136,4.5278-2.0962.006-.0342-11.3759 2.0962-.0063 .7681-.0023c1.888-.0057 3.2174.4703 3.9882,1.4279 .3855.479.5793,1.0544.5814,1.7263 .004,1.1732-.5111,2.0867-1.544,2.7405-.3512.2358-.7559.4131-1.2142.532l3.5027,4.9333z"/> <path d="m240.0773,99.459 8.0639-.0243 .006,1.8721-5.9677.018 .008,2.7358 5.6318-.0169 .006,1.8721-5.6318.0169 .009,3.0239 5.9677-.018 .006,1.8721-8.0639.0243z"/> <path d="m249.921,99.4294 8.0639-.0243 .006,1.8721-5.9677.018 .008,2.7358 5.6318-.0169 .006,1.8721-5.6318.0169 .009,3.0239 5.9677-.018 .006,1.8721-8.0639.0243z"/> <path d="m215.4397,128.0611 1.9341-.6455c.3758.7987.7507,1.3094 1.1247,1.5323 .2991.1912.6674.2861 1.1049.2848 .9066-.003 1.4762-.335 1.7089-.9968 .0633-.1818.0946-.374.094-.5765-.002-.7252-.5212-1.2997-1.557-1.7233-.235-.0953-.4913-.1798-.7688-.2536-1.9322-.4955-3.0547-1.3616-3.3677-2.5983-.0541-.2238-.0815-.453-.0822-.6877-.004-1.2158.5484-2.1081 1.656-2.6769 .6283-.3111 1.3479-.4679 2.1587-.4704 1.7597-.005 2.9992.7163 3.7184,2.1646l-2.0621.6146c-.3217-.5645-.8241-.867-1.5071-.9076l-.1758.0005c-1.0986.003-1.6467.4262-1.6441,1.2686 .002.6507.6168,1.1769 1.8446,1.5784l.3846.1112c1.4947.5076 2.4992,1.1232 3.0134,1.8469 .3534.5002.5311,1.0757.533,1.7264 .004,1.1732-.4789,2.092-1.4473,2.7563-.7027.4715-1.534.7087-2.494.7116-1.9414.006-3.3312-1.0141-4.1694-3.0597z"/> <path d="m227.1871,124.4418 .7842-.002c1.3011-.004 2.0732-.3956 2.3163-1.1749 .0422-.1388.0631-.2881.0626-.4479-.003-.8642-.644-1.3423-1.9243-1.4342-.1494-.0102-.3041-.0152-.4639-.0147l-.7842.002zm-2.1111-4.9375 2.0962-.006 .7842-.002c1.6745-.005 2.9291.4391 3.7638,1.3324 .5137.5639.7717,1.2246.774,1.9821 .003,1.0453-.4476,1.9105-1.3521,2.5959-.8409.6213-1.896.9339-3.1652.9377l-.7842.002 .0136,4.5278-2.0962.006z"/> <path d="m238.57 122.65-1.222 3.3157 2.3359-7e-3zm1.7115 5.2268-3.5039 0.0105-1.0629 2.9632-2.416 7e-3 4.3656-11.389 2-6e-3 4.002 11.364-2.3999 7e-3z"/> <path d="m253.8534,128.3776c-.8267,1.7837-2.1466,2.6784-3.9597,2.6838-2.1439.006-3.6134-.9545-4.4086-2.8828-.3762-.9269-.5661-2.009-.5698-3.2464-.006-2.0586.5438-3.6068 1.6501-4.6446 .8297-.7811 1.9325-1.1738 3.3085-1.1779 1.3333-.004 2.4175.4779 3.2524,1.4458 .2567.2981.4603.6176.6108.9586l-1.9979.7096c-.3324-.5429-.7709-.9202-1.3154-1.1318-.1923-.0743-.3737-.1112-.5443-.1107-1.5254.005-2.4186.93-2.6796,2.7761-.0523.3628-.0778.7522-.0766,1.1682 .005,1.7067.4035,2.9269 1.1951,3.6605 .4276.3936.9508.5894 1.5697.5876 .7041-.002 1.3479-.5268 1.9313-1.5742z"/> <path d="m255.3406,119.4132 8.0639-.0243 .006,1.8721-5.9677.018 .008,2.7358 5.6318-.017 .006,1.8721-5.6318.0169 .009,3.0239 5.9677-.018 .006,1.8721-8.0639.0243z"/> <path d="m116.1358,183.9187c1.8479-.006 3.1539-.7053 3.918-2.0992 .3577-.6251.5354-1.3339.533-2.1264-.005-1.5117-.6681-2.7094-1.9906-3.5931-.7691-.5016-1.5979-.7511-2.4863-.7484-1.9922.006-3.3338.7897-4.0249,2.3511-.286.6015-.4279,1.2739-.4257,2.0173 .005,1.7044.7167,2.9265 2.1347,3.6663 .6976.3575 1.4782.535 2.3417.5324zm-3.5045-16.0087c.005,1.7754.8847,2.7927 2.6382,3.0518 .2638.0468.5396.0698.8275.0689 1.8479-.005 2.9619-.7289 3.3421-2.17 .0709-.288.1058-.6119.1047-.9715-.004-1.4399-.6434-2.4103-1.9171-2.9111-.4561-.1663-.9844-.2486-1.585-.2468-1.7754.005-2.8649.7286-3.2685,2.1698-.0958.3123-.1431.6486-.142,1.009zm3.3989-7.0305c2.8806-.009 5.1033.8965 6.6681,2.7155 1.0364,1.2208 1.557,2.6475 1.562,4.28 .006,2.0156-1.0329,3.7227-3.1168,5.1213l-.1799.1082c1.1288.3086 2.1513,1.1574 3.0674,2.5462 .8439,1.2697 1.268,2.6124 1.2723,4.0282-.0388,3.1928-1.3758,5.501-4.0112,6.9247-1.4617.7962-3.2004,1.1973-5.216,1.2033-3.4805.0105-6.04-1.0977-7.6785-3.3244-.9642-1.3169-1.449-2.8997-1.4546-4.7483s.6855-3.5419 2.0732-5.082c.7651-.8182 1.5078-1.3123 2.228-1.4822-1.7073-.9792-2.7674-2.2962-3.1804-3.951-.0972-.4077-.1465-.8393-.1478-1.2949-.008-2.5444 1.0307-4.4559 3.115-5.7344 1.3648-.8676 3.0312-1.3044 4.9993-1.3103z"/> <path d="m107.193,47.7136-2.2612,2.1316-3.0347-3.3758 5.3508-4.5875 4.6439-.014 .077,25.5958-4.7164.0142z"/> <path d="m123.5296,48.8919-4.1796-1.2113c.4735-2.0654 1.6324-3.7011 3.4767-4.9071 1.2455-.8431 2.5524-1.2667 3.9205-1.2709 2.0639-.006 3.8541.7564 5.3704,2.2877 1.6853,1.7227 2.5325,4.0603 2.5414,7.0126 .005,1.6553-1.1634,4.1787-3.5049,7.5703 .0954-.1687-.263.3362-1.0754,1.515l-2.8694,3.7165 8.2804-.0249 .0127,4.2121-17.0276.0513 8.2832-10.7531c1.3622-1.9963 2.21-3.3069 2.5436-3.932 .5017-.9851.7516-1.7656.7499-2.3413-.007-2.3283-.6358-3.8986-1.8863-4.7108-.4329-.2631-.9013-.3939-1.4052-.3924-1.6318.005-2.7086,1.0643-3.2303,3.1782z"/> <path d="m119.6515,237.4782c-.005-1.6076-.5723-2.7818-1.7025-3.5226-.5534-.3587-1.19-.5369-1.91-.5348-1.44.004-2.4698.7157-3.0895,2.1341-.2385.5764-.3568,1.2004-.3547,1.872 .005,1.6084.5965,2.7708 1.7749,3.4872 .529.3104 1.1055.4647 1.7295.4628 1.4875-.004 2.5412-.7038 3.1611-2.098 .2627-.5765.3931-1.1767.3912-1.8008zm-5.1361-8.0123 1.6185-.2927c2.9524-.009 5.1997,1.0643 6.7421,3.2196 .9879,1.4128 1.4848,3.1032 1.4907,5.0712 .007,2.1841-.7916,4.0824-2.3944,5.6949-1.6037,1.5649-3.5694,2.3508-5.897,2.3578-2.6638.008-4.7908-.9813-6.381-2.968-1.2042-1.4847-1.8091-3.1751-1.8148-5.0713-.008-2.5679.6562-5.2458 1.9918-8.0337l.3211-.6492 5.3343-10.0961 3.8221,2.1847z"/> </g> <path transform="matrix(1.045 0 0 1.0712 -91.579 82.145)" d="m270.97-3.1508c0 11.601-9.6395 21.005-21.53 21.005s-21.53-9.4044-21.53-21.005 9.6395-21.005 21.53-21.005 21.53 9.4044 21.53 21.005z" fill="#f00"/> <path transform="matrix(1.045 0 0 1.0712 34.453 33.833)" d="m270.97-3.1508c0 11.601-9.6395 21.005-21.53 21.005s-21.53-9.4044-21.53-21.005 9.6395-21.005 21.53-21.005 21.53 9.4044 21.53 21.005z" fill="#f00"/> <path transform="matrix(1.045 0 0 1.0712 28.151 95.798)" d="m270.97-3.1508c0 11.601-9.6395 21.005-21.53 21.005s-21.53-9.4044-21.53-21.005 9.6395-21.005 21.53-21.005 21.53 9.4044 21.53 21.005z" fill="#f00"/> <path transform="matrix(1.045 0 0 1.0712 80.664 160.91)" d="m270.97-3.1508c0 11.601-9.6395 21.005-21.53 21.005s-21.53-9.4044-21.53-21.005 9.6395-21.005 21.53-21.005 21.53 9.4044 21.53 21.005z" fill="#f00"/> </g> </svg>